%TF.GenerationSoftware,KiCad,Pcbnew,10.0.0*%
%TF.CreationDate,2026-04-19T08:47:23-05:00*%
%TF.ProjectId,1,312e6b69-6361-4645-9f70-636258585858,rev?*%
%TF.SameCoordinates,Original*%
%TF.FileFunction,Legend,Top*%
%TF.FilePolarity,Positive*%
%FSLAX46Y46*%
G04 Gerber Fmt 4.6, Leading zero omitted, Abs format (unit mm)*
G04 Created by KiCad (PCBNEW 10.0.0) date 2026-04-19 08:47:23*
%MOMM*%
%LPD*%
G01*
G04 APERTURE LIST*
%ADD10C,0.150000*%
%ADD11C,0.100000*%
%ADD12C,0.120000*%
G04 APERTURE END LIST*
D10*
X183134523Y-143543580D02*
X183086904Y-143591200D01*
X183086904Y-143591200D02*
X182944047Y-143638819D01*
X182944047Y-143638819D02*
X182848809Y-143638819D01*
X182848809Y-143638819D02*
X182705952Y-143591200D01*
X182705952Y-143591200D02*
X182610714Y-143495961D01*
X182610714Y-143495961D02*
X182563095Y-143400723D01*
X182563095Y-143400723D02*
X182515476Y-143210247D01*
X182515476Y-143210247D02*
X182515476Y-143067390D01*
X182515476Y-143067390D02*
X182563095Y-142876914D01*
X182563095Y-142876914D02*
X182610714Y-142781676D01*
X182610714Y-142781676D02*
X182705952Y-142686438D01*
X182705952Y-142686438D02*
X182848809Y-142638819D01*
X182848809Y-142638819D02*
X182944047Y-142638819D01*
X182944047Y-142638819D02*
X183086904Y-142686438D01*
X183086904Y-142686438D02*
X183134523Y-142734057D01*
X183563095Y-143638819D02*
X183563095Y-142638819D01*
X183563095Y-142638819D02*
X184134523Y-143638819D01*
X184134523Y-143638819D02*
X184134523Y-142638819D01*
X185134523Y-143638819D02*
X184563095Y-143638819D01*
X184848809Y-143638819D02*
X184848809Y-142638819D01*
X184848809Y-142638819D02*
X184753571Y-142781676D01*
X184753571Y-142781676D02*
X184658333Y-142876914D01*
X184658333Y-142876914D02*
X184563095Y-142924533D01*
X147115180Y-113366666D02*
X146400895Y-113366666D01*
X146400895Y-113366666D02*
X146258038Y-113319047D01*
X146258038Y-113319047D02*
X146162800Y-113223809D01*
X146162800Y-113223809D02*
X146115180Y-113080952D01*
X146115180Y-113080952D02*
X146115180Y-112985714D01*
X146115180Y-114366666D02*
X146115180Y-113795238D01*
X146115180Y-114080952D02*
X147115180Y-114080952D01*
X147115180Y-114080952D02*
X146972323Y-113985714D01*
X146972323Y-113985714D02*
X146877085Y-113890476D01*
X146877085Y-113890476D02*
X146829466Y-113795238D01*
X148008333Y-113774819D02*
X147675000Y-113298628D01*
X147436905Y-113774819D02*
X147436905Y-112774819D01*
X147436905Y-112774819D02*
X147817857Y-112774819D01*
X147817857Y-112774819D02*
X147913095Y-112822438D01*
X147913095Y-112822438D02*
X147960714Y-112870057D01*
X147960714Y-112870057D02*
X148008333Y-112965295D01*
X148008333Y-112965295D02*
X148008333Y-113108152D01*
X148008333Y-113108152D02*
X147960714Y-113203390D01*
X147960714Y-113203390D02*
X147913095Y-113251009D01*
X147913095Y-113251009D02*
X147817857Y-113298628D01*
X147817857Y-113298628D02*
X147436905Y-113298628D01*
X148960714Y-113774819D02*
X148389286Y-113774819D01*
X148675000Y-113774819D02*
X148675000Y-112774819D01*
X148675000Y-112774819D02*
X148579762Y-112917676D01*
X148579762Y-112917676D02*
X148484524Y-113012914D01*
X148484524Y-113012914D02*
X148389286Y-113060533D01*
X147838333Y-110029819D02*
X147505000Y-109553628D01*
X147266905Y-110029819D02*
X147266905Y-109029819D01*
X147266905Y-109029819D02*
X147647857Y-109029819D01*
X147647857Y-109029819D02*
X147743095Y-109077438D01*
X147743095Y-109077438D02*
X147790714Y-109125057D01*
X147790714Y-109125057D02*
X147838333Y-109220295D01*
X147838333Y-109220295D02*
X147838333Y-109363152D01*
X147838333Y-109363152D02*
X147790714Y-109458390D01*
X147790714Y-109458390D02*
X147743095Y-109506009D01*
X147743095Y-109506009D02*
X147647857Y-109553628D01*
X147647857Y-109553628D02*
X147266905Y-109553628D01*
X148219286Y-109125057D02*
X148266905Y-109077438D01*
X148266905Y-109077438D02*
X148362143Y-109029819D01*
X148362143Y-109029819D02*
X148600238Y-109029819D01*
X148600238Y-109029819D02*
X148695476Y-109077438D01*
X148695476Y-109077438D02*
X148743095Y-109125057D01*
X148743095Y-109125057D02*
X148790714Y-109220295D01*
X148790714Y-109220295D02*
X148790714Y-109315533D01*
X148790714Y-109315533D02*
X148743095Y-109458390D01*
X148743095Y-109458390D02*
X148171667Y-110029819D01*
X148171667Y-110029819D02*
X148790714Y-110029819D01*
X215744819Y-94388094D02*
X214744819Y-94388094D01*
X214744819Y-94388094D02*
X214744819Y-94149999D01*
X214744819Y-94149999D02*
X214792438Y-94007142D01*
X214792438Y-94007142D02*
X214887676Y-93911904D01*
X214887676Y-93911904D02*
X214982914Y-93864285D01*
X214982914Y-93864285D02*
X215173390Y-93816666D01*
X215173390Y-93816666D02*
X215316247Y-93816666D01*
X215316247Y-93816666D02*
X215506723Y-93864285D01*
X215506723Y-93864285D02*
X215601961Y-93911904D01*
X215601961Y-93911904D02*
X215697200Y-94007142D01*
X215697200Y-94007142D02*
X215744819Y-94149999D01*
X215744819Y-94149999D02*
X215744819Y-94388094D01*
X214840057Y-93435713D02*
X214792438Y-93388094D01*
X214792438Y-93388094D02*
X214744819Y-93292856D01*
X214744819Y-93292856D02*
X214744819Y-93054761D01*
X214744819Y-93054761D02*
X214792438Y-92959523D01*
X214792438Y-92959523D02*
X214840057Y-92911904D01*
X214840057Y-92911904D02*
X214935295Y-92864285D01*
X214935295Y-92864285D02*
X215030533Y-92864285D01*
X215030533Y-92864285D02*
X215173390Y-92911904D01*
X215173390Y-92911904D02*
X215744819Y-93483332D01*
X215744819Y-93483332D02*
X215744819Y-92864285D01*
D11*
X218027628Y-92121428D02*
X218027628Y-91778571D01*
X218027628Y-91950000D02*
X218627628Y-91950000D01*
X218627628Y-91950000D02*
X218541914Y-91892857D01*
X218541914Y-91892857D02*
X218484771Y-91835714D01*
X218484771Y-91835714D02*
X218456200Y-91778571D01*
D10*
X164213095Y-101779819D02*
X164213095Y-102589342D01*
X164213095Y-102589342D02*
X164260714Y-102684580D01*
X164260714Y-102684580D02*
X164308333Y-102732200D01*
X164308333Y-102732200D02*
X164403571Y-102779819D01*
X164403571Y-102779819D02*
X164594047Y-102779819D01*
X164594047Y-102779819D02*
X164689285Y-102732200D01*
X164689285Y-102732200D02*
X164736904Y-102684580D01*
X164736904Y-102684580D02*
X164784523Y-102589342D01*
X164784523Y-102589342D02*
X164784523Y-101779819D01*
X165689285Y-102113152D02*
X165689285Y-102779819D01*
X165451190Y-101732200D02*
X165213095Y-102446485D01*
X165213095Y-102446485D02*
X165832142Y-102446485D01*
X192790476Y-110604819D02*
X193457142Y-111604819D01*
X193457142Y-110604819D02*
X192790476Y-111604819D01*
X194361904Y-111604819D02*
X193790476Y-111604819D01*
X194076190Y-111604819D02*
X194076190Y-110604819D01*
X194076190Y-110604819D02*
X193980952Y-110747676D01*
X193980952Y-110747676D02*
X193885714Y-110842914D01*
X193885714Y-110842914D02*
X193790476Y-110890533D01*
X188774819Y-111263094D02*
X189584342Y-111263094D01*
X189584342Y-111263094D02*
X189679580Y-111215475D01*
X189679580Y-111215475D02*
X189727200Y-111167856D01*
X189727200Y-111167856D02*
X189774819Y-111072618D01*
X189774819Y-111072618D02*
X189774819Y-110882142D01*
X189774819Y-110882142D02*
X189727200Y-110786904D01*
X189727200Y-110786904D02*
X189679580Y-110739285D01*
X189679580Y-110739285D02*
X189584342Y-110691666D01*
X189584342Y-110691666D02*
X188774819Y-110691666D01*
X189774819Y-109691666D02*
X189774819Y-110263094D01*
X189774819Y-109977380D02*
X188774819Y-109977380D01*
X188774819Y-109977380D02*
X188917676Y-110072618D01*
X188917676Y-110072618D02*
X189012914Y-110167856D01*
X189012914Y-110167856D02*
X189060533Y-110263094D01*
X189774819Y-108739285D02*
X189774819Y-109310713D01*
X189774819Y-109024999D02*
X188774819Y-109024999D01*
X188774819Y-109024999D02*
X188917676Y-109120237D01*
X188917676Y-109120237D02*
X189012914Y-109215475D01*
X189012914Y-109215475D02*
X189060533Y-109310713D01*
X219154819Y-104624404D02*
X219964342Y-104624404D01*
X219964342Y-104624404D02*
X220059580Y-104576785D01*
X220059580Y-104576785D02*
X220107200Y-104529166D01*
X220107200Y-104529166D02*
X220154819Y-104433928D01*
X220154819Y-104433928D02*
X220154819Y-104243452D01*
X220154819Y-104243452D02*
X220107200Y-104148214D01*
X220107200Y-104148214D02*
X220059580Y-104100595D01*
X220059580Y-104100595D02*
X219964342Y-104052976D01*
X219964342Y-104052976D02*
X219154819Y-104052976D01*
X219154819Y-103672023D02*
X219154819Y-103005357D01*
X219154819Y-103005357D02*
X220154819Y-103433928D01*
X177804819Y-123261904D02*
X178614342Y-123261904D01*
X178614342Y-123261904D02*
X178709580Y-123214285D01*
X178709580Y-123214285D02*
X178757200Y-123166666D01*
X178757200Y-123166666D02*
X178804819Y-123071428D01*
X178804819Y-123071428D02*
X178804819Y-122880952D01*
X178804819Y-122880952D02*
X178757200Y-122785714D01*
X178757200Y-122785714D02*
X178709580Y-122738095D01*
X178709580Y-122738095D02*
X178614342Y-122690476D01*
X178614342Y-122690476D02*
X177804819Y-122690476D01*
X177804819Y-121785714D02*
X177804819Y-121976190D01*
X177804819Y-121976190D02*
X177852438Y-122071428D01*
X177852438Y-122071428D02*
X177900057Y-122119047D01*
X177900057Y-122119047D02*
X178042914Y-122214285D01*
X178042914Y-122214285D02*
X178233390Y-122261904D01*
X178233390Y-122261904D02*
X178614342Y-122261904D01*
X178614342Y-122261904D02*
X178709580Y-122214285D01*
X178709580Y-122214285D02*
X178757200Y-122166666D01*
X178757200Y-122166666D02*
X178804819Y-122071428D01*
X178804819Y-122071428D02*
X178804819Y-121880952D01*
X178804819Y-121880952D02*
X178757200Y-121785714D01*
X178757200Y-121785714D02*
X178709580Y-121738095D01*
X178709580Y-121738095D02*
X178614342Y-121690476D01*
X178614342Y-121690476D02*
X178376247Y-121690476D01*
X178376247Y-121690476D02*
X178281009Y-121738095D01*
X178281009Y-121738095D02*
X178233390Y-121785714D01*
X178233390Y-121785714D02*
X178185771Y-121880952D01*
X178185771Y-121880952D02*
X178185771Y-122071428D01*
X178185771Y-122071428D02*
X178233390Y-122166666D01*
X178233390Y-122166666D02*
X178281009Y-122214285D01*
X178281009Y-122214285D02*
X178376247Y-122261904D01*
X172713095Y-101799819D02*
X172713095Y-102609342D01*
X172713095Y-102609342D02*
X172760714Y-102704580D01*
X172760714Y-102704580D02*
X172808333Y-102752200D01*
X172808333Y-102752200D02*
X172903571Y-102799819D01*
X172903571Y-102799819D02*
X173094047Y-102799819D01*
X173094047Y-102799819D02*
X173189285Y-102752200D01*
X173189285Y-102752200D02*
X173236904Y-102704580D01*
X173236904Y-102704580D02*
X173284523Y-102609342D01*
X173284523Y-102609342D02*
X173284523Y-101799819D01*
X174236904Y-101799819D02*
X173760714Y-101799819D01*
X173760714Y-101799819D02*
X173713095Y-102276009D01*
X173713095Y-102276009D02*
X173760714Y-102228390D01*
X173760714Y-102228390D02*
X173855952Y-102180771D01*
X173855952Y-102180771D02*
X174094047Y-102180771D01*
X174094047Y-102180771D02*
X174189285Y-102228390D01*
X174189285Y-102228390D02*
X174236904Y-102276009D01*
X174236904Y-102276009D02*
X174284523Y-102371247D01*
X174284523Y-102371247D02*
X174284523Y-102609342D01*
X174284523Y-102609342D02*
X174236904Y-102704580D01*
X174236904Y-102704580D02*
X174189285Y-102752200D01*
X174189285Y-102752200D02*
X174094047Y-102799819D01*
X174094047Y-102799819D02*
X173855952Y-102799819D01*
X173855952Y-102799819D02*
X173760714Y-102752200D01*
X173760714Y-102752200D02*
X173713095Y-102704580D01*
X156154819Y-124911904D02*
X156964342Y-124911904D01*
X156964342Y-124911904D02*
X157059580Y-124864285D01*
X157059580Y-124864285D02*
X157107200Y-124816666D01*
X157107200Y-124816666D02*
X157154819Y-124721428D01*
X157154819Y-124721428D02*
X157154819Y-124530952D01*
X157154819Y-124530952D02*
X157107200Y-124435714D01*
X157107200Y-124435714D02*
X157059580Y-124388095D01*
X157059580Y-124388095D02*
X156964342Y-124340476D01*
X156964342Y-124340476D02*
X156154819Y-124340476D01*
X156154819Y-123959523D02*
X156154819Y-123340476D01*
X156154819Y-123340476D02*
X156535771Y-123673809D01*
X156535771Y-123673809D02*
X156535771Y-123530952D01*
X156535771Y-123530952D02*
X156583390Y-123435714D01*
X156583390Y-123435714D02*
X156631009Y-123388095D01*
X156631009Y-123388095D02*
X156726247Y-123340476D01*
X156726247Y-123340476D02*
X156964342Y-123340476D01*
X156964342Y-123340476D02*
X157059580Y-123388095D01*
X157059580Y-123388095D02*
X157107200Y-123435714D01*
X157107200Y-123435714D02*
X157154819Y-123530952D01*
X157154819Y-123530952D02*
X157154819Y-123816666D01*
X157154819Y-123816666D02*
X157107200Y-123911904D01*
X157107200Y-123911904D02*
X157059580Y-123959523D01*
X176773810Y-119429819D02*
X176773810Y-120239342D01*
X176773810Y-120239342D02*
X176821429Y-120334580D01*
X176821429Y-120334580D02*
X176869048Y-120382200D01*
X176869048Y-120382200D02*
X176964286Y-120429819D01*
X176964286Y-120429819D02*
X177154762Y-120429819D01*
X177154762Y-120429819D02*
X177250000Y-120382200D01*
X177250000Y-120382200D02*
X177297619Y-120334580D01*
X177297619Y-120334580D02*
X177345238Y-120239342D01*
X177345238Y-120239342D02*
X177345238Y-119429819D01*
X178345238Y-120429819D02*
X177773810Y-120429819D01*
X178059524Y-120429819D02*
X178059524Y-119429819D01*
X178059524Y-119429819D02*
X177964286Y-119572676D01*
X177964286Y-119572676D02*
X177869048Y-119667914D01*
X177869048Y-119667914D02*
X177773810Y-119715533D01*
X178773810Y-120334580D02*
X178821429Y-120382200D01*
X178821429Y-120382200D02*
X178773810Y-120429819D01*
X178773810Y-120429819D02*
X178726191Y-120382200D01*
X178726191Y-120382200D02*
X178773810Y-120334580D01*
X178773810Y-120334580D02*
X178773810Y-120429819D01*
X179773809Y-120429819D02*
X179202381Y-120429819D01*
X179488095Y-120429819D02*
X179488095Y-119429819D01*
X179488095Y-119429819D02*
X179392857Y-119572676D01*
X179392857Y-119572676D02*
X179297619Y-119667914D01*
X179297619Y-119667914D02*
X179202381Y-119715533D01*
X176024819Y-122241666D02*
X175548628Y-122574999D01*
X176024819Y-122813094D02*
X175024819Y-122813094D01*
X175024819Y-122813094D02*
X175024819Y-122432142D01*
X175024819Y-122432142D02*
X175072438Y-122336904D01*
X175072438Y-122336904D02*
X175120057Y-122289285D01*
X175120057Y-122289285D02*
X175215295Y-122241666D01*
X175215295Y-122241666D02*
X175358152Y-122241666D01*
X175358152Y-122241666D02*
X175453390Y-122289285D01*
X175453390Y-122289285D02*
X175501009Y-122336904D01*
X175501009Y-122336904D02*
X175548628Y-122432142D01*
X175548628Y-122432142D02*
X175548628Y-122813094D01*
X175024819Y-121336904D02*
X175024819Y-121813094D01*
X175024819Y-121813094D02*
X175501009Y-121860713D01*
X175501009Y-121860713D02*
X175453390Y-121813094D01*
X175453390Y-121813094D02*
X175405771Y-121717856D01*
X175405771Y-121717856D02*
X175405771Y-121479761D01*
X175405771Y-121479761D02*
X175453390Y-121384523D01*
X175453390Y-121384523D02*
X175501009Y-121336904D01*
X175501009Y-121336904D02*
X175596247Y-121289285D01*
X175596247Y-121289285D02*
X175834342Y-121289285D01*
X175834342Y-121289285D02*
X175929580Y-121336904D01*
X175929580Y-121336904D02*
X175977200Y-121384523D01*
X175977200Y-121384523D02*
X176024819Y-121479761D01*
X176024819Y-121479761D02*
X176024819Y-121717856D01*
X176024819Y-121717856D02*
X175977200Y-121813094D01*
X175977200Y-121813094D02*
X175929580Y-121860713D01*
X171024819Y-118666666D02*
X170548628Y-118999999D01*
X171024819Y-119238094D02*
X170024819Y-119238094D01*
X170024819Y-119238094D02*
X170024819Y-118857142D01*
X170024819Y-118857142D02*
X170072438Y-118761904D01*
X170072438Y-118761904D02*
X170120057Y-118714285D01*
X170120057Y-118714285D02*
X170215295Y-118666666D01*
X170215295Y-118666666D02*
X170358152Y-118666666D01*
X170358152Y-118666666D02*
X170453390Y-118714285D01*
X170453390Y-118714285D02*
X170501009Y-118761904D01*
X170501009Y-118761904D02*
X170548628Y-118857142D01*
X170548628Y-118857142D02*
X170548628Y-119238094D01*
X170024819Y-118333332D02*
X170024819Y-117714285D01*
X170024819Y-117714285D02*
X170405771Y-118047618D01*
X170405771Y-118047618D02*
X170405771Y-117904761D01*
X170405771Y-117904761D02*
X170453390Y-117809523D01*
X170453390Y-117809523D02*
X170501009Y-117761904D01*
X170501009Y-117761904D02*
X170596247Y-117714285D01*
X170596247Y-117714285D02*
X170834342Y-117714285D01*
X170834342Y-117714285D02*
X170929580Y-117761904D01*
X170929580Y-117761904D02*
X170977200Y-117809523D01*
X170977200Y-117809523D02*
X171024819Y-117904761D01*
X171024819Y-117904761D02*
X171024819Y-118190475D01*
X171024819Y-118190475D02*
X170977200Y-118285713D01*
X170977200Y-118285713D02*
X170929580Y-118333332D01*
X175620833Y-105884819D02*
X175144643Y-105884819D01*
X175144643Y-105884819D02*
X175144643Y-104884819D01*
X176477976Y-105884819D02*
X175906548Y-105884819D01*
X176192262Y-105884819D02*
X176192262Y-104884819D01*
X176192262Y-104884819D02*
X176097024Y-105027676D01*
X176097024Y-105027676D02*
X176001786Y-105122914D01*
X176001786Y-105122914D02*
X175906548Y-105170533D01*
X215744819Y-99388094D02*
X214744819Y-99388094D01*
X214744819Y-99388094D02*
X214744819Y-99149999D01*
X214744819Y-99149999D02*
X214792438Y-99007142D01*
X214792438Y-99007142D02*
X214887676Y-98911904D01*
X214887676Y-98911904D02*
X214982914Y-98864285D01*
X214982914Y-98864285D02*
X215173390Y-98816666D01*
X215173390Y-98816666D02*
X215316247Y-98816666D01*
X215316247Y-98816666D02*
X215506723Y-98864285D01*
X215506723Y-98864285D02*
X215601961Y-98911904D01*
X215601961Y-98911904D02*
X215697200Y-99007142D01*
X215697200Y-99007142D02*
X215744819Y-99149999D01*
X215744819Y-99149999D02*
X215744819Y-99388094D01*
X214744819Y-98483332D02*
X214744819Y-97864285D01*
X214744819Y-97864285D02*
X215125771Y-98197618D01*
X215125771Y-98197618D02*
X215125771Y-98054761D01*
X215125771Y-98054761D02*
X215173390Y-97959523D01*
X215173390Y-97959523D02*
X215221009Y-97911904D01*
X215221009Y-97911904D02*
X215316247Y-97864285D01*
X215316247Y-97864285D02*
X215554342Y-97864285D01*
X215554342Y-97864285D02*
X215649580Y-97911904D01*
X215649580Y-97911904D02*
X215697200Y-97959523D01*
X215697200Y-97959523D02*
X215744819Y-98054761D01*
X215744819Y-98054761D02*
X215744819Y-98340475D01*
X215744819Y-98340475D02*
X215697200Y-98435713D01*
X215697200Y-98435713D02*
X215649580Y-98483332D01*
D11*
X218027628Y-97121428D02*
X218027628Y-96778571D01*
X218027628Y-96950000D02*
X218627628Y-96950000D01*
X218627628Y-96950000D02*
X218541914Y-96892857D01*
X218541914Y-96892857D02*
X218484771Y-96835714D01*
X218484771Y-96835714D02*
X218456200Y-96778571D01*
D10*
X155104819Y-113125594D02*
X154104819Y-113125594D01*
X154104819Y-113125594D02*
X154104819Y-112887499D01*
X154104819Y-112887499D02*
X154152438Y-112744642D01*
X154152438Y-112744642D02*
X154247676Y-112649404D01*
X154247676Y-112649404D02*
X154342914Y-112601785D01*
X154342914Y-112601785D02*
X154533390Y-112554166D01*
X154533390Y-112554166D02*
X154676247Y-112554166D01*
X154676247Y-112554166D02*
X154866723Y-112601785D01*
X154866723Y-112601785D02*
X154961961Y-112649404D01*
X154961961Y-112649404D02*
X155057200Y-112744642D01*
X155057200Y-112744642D02*
X155104819Y-112887499D01*
X155104819Y-112887499D02*
X155104819Y-113125594D01*
X155104819Y-111601785D02*
X155104819Y-112173213D01*
X155104819Y-111887499D02*
X154104819Y-111887499D01*
X154104819Y-111887499D02*
X154247676Y-111982737D01*
X154247676Y-111982737D02*
X154342914Y-112077975D01*
X154342914Y-112077975D02*
X154390533Y-112173213D01*
X185558333Y-119179580D02*
X185510714Y-119227200D01*
X185510714Y-119227200D02*
X185367857Y-119274819D01*
X185367857Y-119274819D02*
X185272619Y-119274819D01*
X185272619Y-119274819D02*
X185129762Y-119227200D01*
X185129762Y-119227200D02*
X185034524Y-119131961D01*
X185034524Y-119131961D02*
X184986905Y-119036723D01*
X184986905Y-119036723D02*
X184939286Y-118846247D01*
X184939286Y-118846247D02*
X184939286Y-118703390D01*
X184939286Y-118703390D02*
X184986905Y-118512914D01*
X184986905Y-118512914D02*
X185034524Y-118417676D01*
X185034524Y-118417676D02*
X185129762Y-118322438D01*
X185129762Y-118322438D02*
X185272619Y-118274819D01*
X185272619Y-118274819D02*
X185367857Y-118274819D01*
X185367857Y-118274819D02*
X185510714Y-118322438D01*
X185510714Y-118322438D02*
X185558333Y-118370057D01*
X186415476Y-118274819D02*
X186225000Y-118274819D01*
X186225000Y-118274819D02*
X186129762Y-118322438D01*
X186129762Y-118322438D02*
X186082143Y-118370057D01*
X186082143Y-118370057D02*
X185986905Y-118512914D01*
X185986905Y-118512914D02*
X185939286Y-118703390D01*
X185939286Y-118703390D02*
X185939286Y-119084342D01*
X185939286Y-119084342D02*
X185986905Y-119179580D01*
X185986905Y-119179580D02*
X186034524Y-119227200D01*
X186034524Y-119227200D02*
X186129762Y-119274819D01*
X186129762Y-119274819D02*
X186320238Y-119274819D01*
X186320238Y-119274819D02*
X186415476Y-119227200D01*
X186415476Y-119227200D02*
X186463095Y-119179580D01*
X186463095Y-119179580D02*
X186510714Y-119084342D01*
X186510714Y-119084342D02*
X186510714Y-118846247D01*
X186510714Y-118846247D02*
X186463095Y-118751009D01*
X186463095Y-118751009D02*
X186415476Y-118703390D01*
X186415476Y-118703390D02*
X186320238Y-118655771D01*
X186320238Y-118655771D02*
X186129762Y-118655771D01*
X186129762Y-118655771D02*
X186034524Y-118703390D01*
X186034524Y-118703390D02*
X185986905Y-118751009D01*
X185986905Y-118751009D02*
X185939286Y-118846247D01*
X185558333Y-116929580D02*
X185510714Y-116977200D01*
X185510714Y-116977200D02*
X185367857Y-117024819D01*
X185367857Y-117024819D02*
X185272619Y-117024819D01*
X185272619Y-117024819D02*
X185129762Y-116977200D01*
X185129762Y-116977200D02*
X185034524Y-116881961D01*
X185034524Y-116881961D02*
X184986905Y-116786723D01*
X184986905Y-116786723D02*
X184939286Y-116596247D01*
X184939286Y-116596247D02*
X184939286Y-116453390D01*
X184939286Y-116453390D02*
X184986905Y-116262914D01*
X184986905Y-116262914D02*
X185034524Y-116167676D01*
X185034524Y-116167676D02*
X185129762Y-116072438D01*
X185129762Y-116072438D02*
X185272619Y-116024819D01*
X185272619Y-116024819D02*
X185367857Y-116024819D01*
X185367857Y-116024819D02*
X185510714Y-116072438D01*
X185510714Y-116072438D02*
X185558333Y-116120057D01*
X186463095Y-116024819D02*
X185986905Y-116024819D01*
X185986905Y-116024819D02*
X185939286Y-116501009D01*
X185939286Y-116501009D02*
X185986905Y-116453390D01*
X185986905Y-116453390D02*
X186082143Y-116405771D01*
X186082143Y-116405771D02*
X186320238Y-116405771D01*
X186320238Y-116405771D02*
X186415476Y-116453390D01*
X186415476Y-116453390D02*
X186463095Y-116501009D01*
X186463095Y-116501009D02*
X186510714Y-116596247D01*
X186510714Y-116596247D02*
X186510714Y-116834342D01*
X186510714Y-116834342D02*
X186463095Y-116929580D01*
X186463095Y-116929580D02*
X186415476Y-116977200D01*
X186415476Y-116977200D02*
X186320238Y-117024819D01*
X186320238Y-117024819D02*
X186082143Y-117024819D01*
X186082143Y-117024819D02*
X185986905Y-116977200D01*
X185986905Y-116977200D02*
X185939286Y-116929580D01*
X187929580Y-119916666D02*
X187977200Y-119964285D01*
X187977200Y-119964285D02*
X188024819Y-120107142D01*
X188024819Y-120107142D02*
X188024819Y-120202380D01*
X188024819Y-120202380D02*
X187977200Y-120345237D01*
X187977200Y-120345237D02*
X187881961Y-120440475D01*
X187881961Y-120440475D02*
X187786723Y-120488094D01*
X187786723Y-120488094D02*
X187596247Y-120535713D01*
X187596247Y-120535713D02*
X187453390Y-120535713D01*
X187453390Y-120535713D02*
X187262914Y-120488094D01*
X187262914Y-120488094D02*
X187167676Y-120440475D01*
X187167676Y-120440475D02*
X187072438Y-120345237D01*
X187072438Y-120345237D02*
X187024819Y-120202380D01*
X187024819Y-120202380D02*
X187024819Y-120107142D01*
X187024819Y-120107142D02*
X187072438Y-119964285D01*
X187072438Y-119964285D02*
X187120057Y-119916666D01*
X187358152Y-119059523D02*
X188024819Y-119059523D01*
X186977200Y-119297618D02*
X187691485Y-119535713D01*
X187691485Y-119535713D02*
X187691485Y-118916666D01*
X187679580Y-116416666D02*
X187727200Y-116464285D01*
X187727200Y-116464285D02*
X187774819Y-116607142D01*
X187774819Y-116607142D02*
X187774819Y-116702380D01*
X187774819Y-116702380D02*
X187727200Y-116845237D01*
X187727200Y-116845237D02*
X187631961Y-116940475D01*
X187631961Y-116940475D02*
X187536723Y-116988094D01*
X187536723Y-116988094D02*
X187346247Y-117035713D01*
X187346247Y-117035713D02*
X187203390Y-117035713D01*
X187203390Y-117035713D02*
X187012914Y-116988094D01*
X187012914Y-116988094D02*
X186917676Y-116940475D01*
X186917676Y-116940475D02*
X186822438Y-116845237D01*
X186822438Y-116845237D02*
X186774819Y-116702380D01*
X186774819Y-116702380D02*
X186774819Y-116607142D01*
X186774819Y-116607142D02*
X186822438Y-116464285D01*
X186822438Y-116464285D02*
X186870057Y-116416666D01*
X186774819Y-116083332D02*
X186774819Y-115464285D01*
X186774819Y-115464285D02*
X187155771Y-115797618D01*
X187155771Y-115797618D02*
X187155771Y-115654761D01*
X187155771Y-115654761D02*
X187203390Y-115559523D01*
X187203390Y-115559523D02*
X187251009Y-115511904D01*
X187251009Y-115511904D02*
X187346247Y-115464285D01*
X187346247Y-115464285D02*
X187584342Y-115464285D01*
X187584342Y-115464285D02*
X187679580Y-115511904D01*
X187679580Y-115511904D02*
X187727200Y-115559523D01*
X187727200Y-115559523D02*
X187774819Y-115654761D01*
X187774819Y-115654761D02*
X187774819Y-115940475D01*
X187774819Y-115940475D02*
X187727200Y-116035713D01*
X187727200Y-116035713D02*
X187679580Y-116083332D01*
X185179580Y-114666666D02*
X185227200Y-114714285D01*
X185227200Y-114714285D02*
X185274819Y-114857142D01*
X185274819Y-114857142D02*
X185274819Y-114952380D01*
X185274819Y-114952380D02*
X185227200Y-115095237D01*
X185227200Y-115095237D02*
X185131961Y-115190475D01*
X185131961Y-115190475D02*
X185036723Y-115238094D01*
X185036723Y-115238094D02*
X184846247Y-115285713D01*
X184846247Y-115285713D02*
X184703390Y-115285713D01*
X184703390Y-115285713D02*
X184512914Y-115238094D01*
X184512914Y-115238094D02*
X184417676Y-115190475D01*
X184417676Y-115190475D02*
X184322438Y-115095237D01*
X184322438Y-115095237D02*
X184274819Y-114952380D01*
X184274819Y-114952380D02*
X184274819Y-114857142D01*
X184274819Y-114857142D02*
X184322438Y-114714285D01*
X184322438Y-114714285D02*
X184370057Y-114666666D01*
X184370057Y-114285713D02*
X184322438Y-114238094D01*
X184322438Y-114238094D02*
X184274819Y-114142856D01*
X184274819Y-114142856D02*
X184274819Y-113904761D01*
X184274819Y-113904761D02*
X184322438Y-113809523D01*
X184322438Y-113809523D02*
X184370057Y-113761904D01*
X184370057Y-113761904D02*
X184465295Y-113714285D01*
X184465295Y-113714285D02*
X184560533Y-113714285D01*
X184560533Y-113714285D02*
X184703390Y-113761904D01*
X184703390Y-113761904D02*
X185274819Y-114333332D01*
X185274819Y-114333332D02*
X185274819Y-113714285D01*
X188039580Y-110916666D02*
X188087200Y-110964285D01*
X188087200Y-110964285D02*
X188134819Y-111107142D01*
X188134819Y-111107142D02*
X188134819Y-111202380D01*
X188134819Y-111202380D02*
X188087200Y-111345237D01*
X188087200Y-111345237D02*
X187991961Y-111440475D01*
X187991961Y-111440475D02*
X187896723Y-111488094D01*
X187896723Y-111488094D02*
X187706247Y-111535713D01*
X187706247Y-111535713D02*
X187563390Y-111535713D01*
X187563390Y-111535713D02*
X187372914Y-111488094D01*
X187372914Y-111488094D02*
X187277676Y-111440475D01*
X187277676Y-111440475D02*
X187182438Y-111345237D01*
X187182438Y-111345237D02*
X187134819Y-111202380D01*
X187134819Y-111202380D02*
X187134819Y-111107142D01*
X187134819Y-111107142D02*
X187182438Y-110964285D01*
X187182438Y-110964285D02*
X187230057Y-110916666D01*
X188134819Y-109964285D02*
X188134819Y-110535713D01*
X188134819Y-110249999D02*
X187134819Y-110249999D01*
X187134819Y-110249999D02*
X187277676Y-110345237D01*
X187277676Y-110345237D02*
X187372914Y-110440475D01*
X187372914Y-110440475D02*
X187420533Y-110535713D01*
%TO.C,CN1*%
D12*
X181920000Y-141754000D02*
X181920000Y-141119000D01*
X182555000Y-141754000D02*
X181920000Y-141754000D01*
%TO.C,J1*%
X141170000Y-109030000D02*
X142870000Y-109030000D01*
X141170000Y-118370000D02*
X142870000Y-118370000D01*
%TO.C,R1*%
X147937742Y-114227500D02*
X148412258Y-114227500D01*
X147937742Y-115272500D02*
X148412258Y-115272500D01*
%TO.C,R2*%
X147767742Y-110482500D02*
X148242258Y-110482500D01*
X147767742Y-111527500D02*
X148242258Y-111527500D01*
%TO.C,D2*%
X216000000Y-92450000D02*
X216000000Y-93150000D01*
%TO.C,U4*%
X167035000Y-101485000D02*
X162915000Y-101485000D01*
X167035000Y-101430000D02*
X167035000Y-101485000D01*
X167035000Y-91365000D02*
X167035000Y-91420000D01*
X162915000Y-101485000D02*
X162915000Y-101430000D01*
X162915000Y-91420000D02*
X162915000Y-91365000D01*
X162915000Y-91365000D02*
X167035000Y-91365000D01*
X167815000Y-101765000D02*
X167335000Y-101765000D01*
X167575000Y-101435000D01*
X167815000Y-101765000D01*
G36*
X167815000Y-101765000D02*
G01*
X167335000Y-101765000D01*
X167575000Y-101435000D01*
X167815000Y-101765000D01*
G37*
%TO.C,X1*%
X191540000Y-111890000D02*
X191540000Y-115310000D01*
X191540000Y-115310000D02*
X195660000Y-115310000D01*
%TO.C,U11*%
X190240000Y-110165580D02*
X190240000Y-109884420D01*
X191260000Y-110165580D02*
X191260000Y-109884420D01*
%TO.C,U7*%
X218860000Y-102952500D02*
X218860000Y-104772500D01*
X218810000Y-102952500D02*
X218860000Y-102952500D01*
X215740000Y-102952500D02*
X215790000Y-102952500D01*
X218860000Y-104772500D02*
X218810000Y-104772500D01*
X215790000Y-104772500D02*
X215740000Y-104772500D01*
X215740000Y-104772500D02*
X215740000Y-102952500D01*
X219140000Y-102652500D02*
X218810000Y-102412500D01*
X219140000Y-102172500D01*
X219140000Y-102652500D01*
G36*
X219140000Y-102652500D02*
G01*
X218810000Y-102412500D01*
X219140000Y-102172500D01*
X219140000Y-102652500D01*
G37*
%TO.C,U6*%
X179190000Y-123410000D02*
X179190000Y-121590000D01*
X179265000Y-123410000D02*
X179190000Y-123410000D01*
X182310000Y-123410000D02*
X182235000Y-123410000D01*
X179190000Y-121590000D02*
X179265000Y-121590000D01*
X182235000Y-121590000D02*
X182310000Y-121590000D01*
X182310000Y-121590000D02*
X182310000Y-123410000D01*
X179260000Y-123950000D02*
X178930000Y-124190000D01*
X178930000Y-123710000D01*
X179260000Y-123950000D01*
G36*
X179260000Y-123950000D02*
G01*
X178930000Y-124190000D01*
X178930000Y-123710000D01*
X179260000Y-123950000D01*
G37*
%TO.C,U5*%
X176315000Y-101785000D02*
X175835000Y-101785000D01*
X176075000Y-101455000D01*
X176315000Y-101785000D01*
G36*
X176315000Y-101785000D02*
G01*
X175835000Y-101785000D01*
X176075000Y-101455000D01*
X176315000Y-101785000D01*
G37*
X171415000Y-91385000D02*
X175535000Y-91385000D01*
X171415000Y-91440000D02*
X171415000Y-91385000D01*
X171415000Y-101505000D02*
X171415000Y-101450000D01*
X175535000Y-91385000D02*
X175535000Y-91440000D01*
X175535000Y-101450000D02*
X175535000Y-101505000D01*
X175535000Y-101505000D02*
X171415000Y-101505000D01*
%TO.C,U3*%
X155610000Y-122300000D02*
X155610000Y-126060000D01*
X148790000Y-122300000D02*
X148790000Y-126060000D01*
X155610000Y-126060000D02*
X154350000Y-126060000D01*
X148790000Y-126060000D02*
X150050000Y-126060000D01*
X155840000Y-121260000D02*
X155510000Y-121020000D01*
X155840000Y-120780000D01*
X155840000Y-121260000D01*
G36*
X155840000Y-121260000D02*
G01*
X155510000Y-121020000D01*
X155840000Y-120780000D01*
X155840000Y-121260000D01*
G37*
%TO.C,U1.1*%
X183360000Y-117685000D02*
X182410000Y-117685000D01*
X183360000Y-116735000D02*
X183360000Y-117685000D01*
X183360000Y-107465000D02*
X183360000Y-108415000D01*
X182410000Y-107465000D02*
X183360000Y-107465000D01*
X174090000Y-117685000D02*
X173140000Y-117685000D01*
X173140000Y-117685000D02*
X173140000Y-116735000D01*
X173140000Y-108415000D02*
X173140000Y-107465000D01*
X173140000Y-107465000D02*
X174090000Y-107465000D01*
X184340000Y-117205000D02*
X183660000Y-117205000D01*
X184000000Y-116735000D01*
X184340000Y-117205000D01*
G36*
X184340000Y-117205000D02*
G01*
X183660000Y-117205000D01*
X184000000Y-116735000D01*
X184340000Y-117205000D01*
G37*
%TO.C,R5*%
X176477500Y-122312258D02*
X176477500Y-121837742D01*
X177522500Y-122312258D02*
X177522500Y-121837742D01*
%TO.C,R3*%
X171477500Y-118737258D02*
X171477500Y-118262742D01*
X172522500Y-118737258D02*
X172522500Y-118262742D01*
%TO.C,L1*%
X175950279Y-104510000D02*
X175624721Y-104510000D01*
X175950279Y-103490000D02*
X175624721Y-103490000D01*
%TO.C,D3*%
X216000000Y-97450000D02*
X216000000Y-98150000D01*
%TO.C,D1*%
X153810000Y-111477500D02*
X153810000Y-113297500D01*
X153760000Y-111477500D02*
X153810000Y-111477500D01*
X150690000Y-111477500D02*
X150740000Y-111477500D01*
X153810000Y-113297500D02*
X153760000Y-113297500D01*
X150740000Y-113297500D02*
X150690000Y-113297500D01*
X150690000Y-113297500D02*
X150690000Y-111477500D01*
X154090000Y-111177500D02*
X153760000Y-110937500D01*
X154090000Y-110697500D01*
X154090000Y-111177500D01*
G36*
X154090000Y-111177500D02*
G01*
X153760000Y-110937500D01*
X154090000Y-110697500D01*
X154090000Y-111177500D01*
G37*
%TO.C,C6*%
X185584420Y-119740000D02*
X185865580Y-119740000D01*
X185584420Y-120760000D02*
X185865580Y-120760000D01*
%TO.C,C5*%
X185584420Y-117490000D02*
X185865580Y-117490000D01*
X185584420Y-118510000D02*
X185865580Y-118510000D01*
%TO.C,C4*%
X188490000Y-119890580D02*
X188490000Y-119609420D01*
X189510000Y-119890580D02*
X189510000Y-119609420D01*
%TO.C,C3*%
X188240000Y-116390580D02*
X188240000Y-116109420D01*
X189260000Y-116390580D02*
X189260000Y-116109420D01*
%TO.C,C2*%
X185740000Y-114640580D02*
X185740000Y-114359420D01*
X186760000Y-114640580D02*
X186760000Y-114359420D01*
%TO.C,C1*%
X186760000Y-110609420D02*
X186760000Y-110890580D01*
X185740000Y-110609420D02*
X185740000Y-110890580D01*
%TD*%
M02*
