%TF.GenerationSoftware,KiCad,Pcbnew,10.0.0*%
%TF.CreationDate,2026-04-19T08:47:23-05:00*%
%TF.ProjectId,1,312e6b69-6361-4645-9f70-636258585858,rev?*%
%TF.SameCoordinates,Original*%
%TF.FileFunction,Soldermask,Top*%
%TF.FilePolarity,Negative*%
%FSLAX46Y46*%
G04 Gerber Fmt 4.6, Leading zero omitted, Abs format (unit mm)*
G04 Created by KiCad (PCBNEW 10.0.0) date 2026-04-19 08:47:23*
%MOMM*%
%LPD*%
G01*
G04 APERTURE LIST*
G04 Aperture macros list*
%AMRoundRect*
0 Rectangle with rounded corners*
0 $1 Rounding radius*
0 $2 $3 $4 $5 $6 $7 $8 $9 X,Y pos of 4 corners*
0 Add a 4 corners polygon primitive as box body*
4,1,4,$2,$3,$4,$5,$6,$7,$8,$9,$2,$3,0*
0 Add four circle primitives for the rounded corners*
1,1,$1+$1,$2,$3*
1,1,$1+$1,$4,$5*
1,1,$1+$1,$6,$7*
1,1,$1+$1,$8,$9*
0 Add four rect primitives between the rounded corners*
20,1,$1+$1,$2,$3,$4,$5,0*
20,1,$1+$1,$4,$5,$6,$7,0*
20,1,$1+$1,$6,$7,$8,$9,0*
20,1,$1+$1,$8,$9,$2,$3,0*%
G04 Aperture macros list end*
%ADD10C,0.990600*%
%ADD11C,0.787400*%
%ADD12C,0.650000*%
%ADD13RoundRect,0.150000X-0.425000X0.150000X-0.425000X-0.150000X0.425000X-0.150000X0.425000X0.150000X0*%
%ADD14RoundRect,0.075000X-0.500000X0.075000X-0.500000X-0.075000X0.500000X-0.075000X0.500000X0.075000X0*%
%ADD15O,2.100000X1.000000*%
%ADD16O,1.800000X1.000000*%
%ADD17RoundRect,0.200000X-0.200000X-0.275000X0.200000X-0.275000X0.200000X0.275000X-0.200000X0.275000X0*%
%ADD18R,0.500000X0.800000*%
%ADD19R,1.480000X0.500000*%
%ADD20R,0.300000X0.800000*%
%ADD21R,1.000000X0.500000*%
%ADD22RoundRect,0.150000X0.825000X0.150000X-0.825000X0.150000X-0.825000X-0.150000X0.825000X-0.150000X0*%
%ADD23RoundRect,0.250000X-0.450000X-0.350000X0.450000X-0.350000X0.450000X0.350000X-0.450000X0.350000X0*%
%ADD24RoundRect,0.225000X0.250000X-0.225000X0.250000X0.225000X-0.250000X0.225000X-0.250000X-0.225000X0*%
%ADD25RoundRect,0.150000X-0.150000X0.512500X-0.150000X-0.512500X0.150000X-0.512500X0.150000X0.512500X0*%
%ADD26RoundRect,0.125000X0.125000X-0.537500X0.125000X0.537500X-0.125000X0.537500X-0.125000X-0.537500X0*%
%ADD27RoundRect,0.375000X-0.375000X0.625000X-0.375000X-0.625000X0.375000X-0.625000X0.375000X0.625000X0*%
%ADD28RoundRect,0.500000X-1.400000X0.500000X-1.400000X-0.500000X1.400000X-0.500000X1.400000X0.500000X0*%
%ADD29RoundRect,0.075000X0.700000X0.075000X-0.700000X0.075000X-0.700000X-0.075000X0.700000X-0.075000X0*%
%ADD30RoundRect,0.075000X0.075000X0.700000X-0.075000X0.700000X-0.075000X-0.700000X0.075000X-0.700000X0*%
%ADD31RoundRect,0.200000X0.275000X-0.200000X0.275000X0.200000X-0.275000X0.200000X-0.275000X-0.200000X0*%
%ADD32RoundRect,0.218750X0.218750X0.256250X-0.218750X0.256250X-0.218750X-0.256250X0.218750X-0.256250X0*%
%ADD33RoundRect,0.225000X-0.225000X-0.250000X0.225000X-0.250000X0.225000X0.250000X-0.225000X0.250000X0*%
%ADD34RoundRect,0.225000X-0.250000X0.225000X-0.250000X-0.225000X0.250000X-0.225000X0.250000X0.225000X0*%
G04 APERTURE END LIST*
D10*
%TO.C,CN1*%
X181285000Y-140484000D03*
X186365000Y-139468000D03*
X186365000Y-141500000D03*
D11*
X182555000Y-141119000D03*
X182555000Y-139849000D03*
X183825000Y-141119000D03*
X183825000Y-139849000D03*
X185095000Y-141119000D03*
X185095000Y-139849000D03*
%TD*%
D12*
%TO.C,J1*%
X143675000Y-110810000D03*
X143675000Y-116590000D03*
D13*
X144750000Y-110500000D03*
X144750000Y-111300000D03*
D14*
X144750000Y-112450000D03*
X144750000Y-113450000D03*
X144750000Y-113950000D03*
X144750000Y-114950000D03*
D13*
X144750000Y-116100000D03*
X144750000Y-116900000D03*
X144750000Y-116900000D03*
X144750000Y-116100000D03*
D14*
X144750000Y-115450000D03*
X144750000Y-114450000D03*
X144750000Y-112950000D03*
X144750000Y-111950000D03*
D13*
X144750000Y-111300000D03*
X144750000Y-110500000D03*
D15*
X144175000Y-109380000D03*
D16*
X139995000Y-109380000D03*
D15*
X144175000Y-118020000D03*
D16*
X139995000Y-118020000D03*
%TD*%
D17*
%TO.C,R1*%
X147350000Y-114750000D03*
X149000000Y-114750000D03*
%TD*%
%TO.C,R2*%
X147180000Y-111005000D03*
X148830000Y-111005000D03*
%TD*%
D18*
%TO.C,D2*%
X218300000Y-94500000D03*
D19*
X216810000Y-93650000D03*
D20*
X217400000Y-94500000D03*
D18*
X216500000Y-94500000D03*
X216500000Y-92800000D03*
D20*
X217400000Y-92800000D03*
D21*
X218230000Y-93650000D03*
D18*
X218300000Y-92800000D03*
%TD*%
D22*
%TO.C,U4*%
X167450000Y-100870000D03*
X167450000Y-99600000D03*
X167450000Y-98330000D03*
X167450000Y-97060000D03*
X167450000Y-95790000D03*
X167450000Y-94520000D03*
X167450000Y-93250000D03*
X167450000Y-91980000D03*
X162500000Y-91980000D03*
X162500000Y-93250000D03*
X162500000Y-94520000D03*
X162500000Y-95790000D03*
X162500000Y-97060000D03*
X162500000Y-98330000D03*
X162500000Y-99600000D03*
X162500000Y-100870000D03*
%TD*%
D23*
%TO.C,X1*%
X192500000Y-114450000D03*
X194700000Y-114450000D03*
X194700000Y-112750000D03*
X192500000Y-112750000D03*
%TD*%
D24*
%TO.C,U11*%
X190750000Y-110800000D03*
X190750000Y-109250000D03*
%TD*%
D25*
%TO.C,U7*%
X218250000Y-102725000D03*
X217300000Y-102725000D03*
X216350000Y-102725000D03*
X216350000Y-105000000D03*
X217300000Y-105000000D03*
X218250000Y-105000000D03*
%TD*%
D26*
%TO.C,U6*%
X179775000Y-123637500D03*
X180425000Y-123637500D03*
X181075000Y-123637500D03*
X181725000Y-123637500D03*
X181725000Y-121362500D03*
X181075000Y-121362500D03*
X180425000Y-121362500D03*
X179775000Y-121362500D03*
%TD*%
D22*
%TO.C,U5*%
X171000000Y-100890000D03*
X171000000Y-99620000D03*
X171000000Y-98350000D03*
X171000000Y-97080000D03*
X171000000Y-95810000D03*
X171000000Y-94540000D03*
X171000000Y-93270000D03*
X171000000Y-92000000D03*
X175950000Y-92000000D03*
X175950000Y-93270000D03*
X175950000Y-94540000D03*
X175950000Y-95810000D03*
X175950000Y-97080000D03*
X175950000Y-98350000D03*
X175950000Y-99620000D03*
X175950000Y-100890000D03*
%TD*%
D27*
%TO.C,U3*%
X154500000Y-121000000D03*
X152200000Y-121000000D03*
D28*
X152200000Y-127300000D03*
D27*
X149900000Y-121000000D03*
%TD*%
D29*
%TO.C,U1.1*%
X183925000Y-116325000D03*
X183925000Y-115825000D03*
X183925000Y-115325000D03*
X183925000Y-114825000D03*
X183925000Y-114325000D03*
X183925000Y-113825000D03*
X183925000Y-113325000D03*
X183925000Y-112825000D03*
X183925000Y-112325000D03*
X183925000Y-111825000D03*
X183925000Y-111325000D03*
X183925000Y-110825000D03*
X183925000Y-110325000D03*
X183925000Y-109825000D03*
X183925000Y-109325000D03*
X183925000Y-108825000D03*
D30*
X182000000Y-106900000D03*
X181500000Y-106900000D03*
X181000000Y-106900000D03*
X180500000Y-106900000D03*
X180000000Y-106900000D03*
X179500000Y-106900000D03*
X179000000Y-106900000D03*
X178500000Y-106900000D03*
X178000000Y-106900000D03*
X177500000Y-106900000D03*
X177000000Y-106900000D03*
X176500000Y-106900000D03*
X176000000Y-106900000D03*
X175500000Y-106900000D03*
X175000000Y-106900000D03*
X174500000Y-106900000D03*
D29*
X172575000Y-108825000D03*
X172575000Y-109325000D03*
X172575000Y-109825000D03*
X172575000Y-110325000D03*
X172575000Y-110825000D03*
X172575000Y-111325000D03*
X172575000Y-111825000D03*
X172575000Y-112325000D03*
X172575000Y-112825000D03*
X172575000Y-113325000D03*
X172575000Y-113825000D03*
X172575000Y-114325000D03*
X172575000Y-114825000D03*
X172575000Y-115325000D03*
X172575000Y-115825000D03*
X172575000Y-116325000D03*
D30*
X174500000Y-118250000D03*
X175000000Y-118250000D03*
X175500000Y-118250000D03*
X176000000Y-118250000D03*
X176500000Y-118250000D03*
X177000000Y-118250000D03*
X177500000Y-118250000D03*
X178000000Y-118250000D03*
X178500000Y-118250000D03*
X179000000Y-118250000D03*
X179500000Y-118250000D03*
X180000000Y-118250000D03*
X180500000Y-118250000D03*
X181000000Y-118250000D03*
X181500000Y-118250000D03*
X182000000Y-118250000D03*
%TD*%
D31*
%TO.C,R5*%
X177000000Y-122900000D03*
X177000000Y-121250000D03*
%TD*%
%TO.C,R3*%
X172000000Y-119325000D03*
X172000000Y-117675000D03*
%TD*%
D32*
%TO.C,L1*%
X176575000Y-104000000D03*
X175000000Y-104000000D03*
%TD*%
D18*
%TO.C,D3*%
X218300000Y-97800000D03*
D21*
X218230000Y-98650000D03*
D20*
X217400000Y-97800000D03*
D18*
X216500000Y-97800000D03*
X216500000Y-99500000D03*
D20*
X217400000Y-99500000D03*
D19*
X216810000Y-98650000D03*
D18*
X218300000Y-99500000D03*
%TD*%
D25*
%TO.C,D1*%
X153200000Y-111250000D03*
X152250000Y-111250000D03*
X151300000Y-111250000D03*
X151300000Y-113525000D03*
X152250000Y-113525000D03*
X153200000Y-113525000D03*
%TD*%
D33*
%TO.C,C6*%
X184950000Y-120250000D03*
X186500000Y-120250000D03*
%TD*%
%TO.C,C5*%
X184950000Y-118000000D03*
X186500000Y-118000000D03*
%TD*%
D24*
%TO.C,C4*%
X189000000Y-120525000D03*
X189000000Y-118975000D03*
%TD*%
%TO.C,C3*%
X188750000Y-117025000D03*
X188750000Y-115475000D03*
%TD*%
%TO.C,C2*%
X186250000Y-115275000D03*
X186250000Y-113725000D03*
%TD*%
D34*
%TO.C,C1*%
X186250000Y-109975000D03*
X186250000Y-111525000D03*
%TD*%
M02*
