%TF.GenerationSoftware,KiCad,Pcbnew,10.0.0*%
%TF.CreationDate,2026-04-19T08:47:27-05:00*%
%TF.ProjectId,1,312e6b69-6361-4645-9f70-636258585858,rev?*%
%TF.SameCoordinates,Original*%
%TF.FileFunction,Drillmap*%
%TF.FilePolarity,Positive*%
%FSLAX45Y45*%
G04 Gerber Fmt 4.5, Leading zero omitted, Abs format (unit mm)*
G04 Created by KiCad (PCBNEW 10.0.0) date 2026-04-19 08:47:27*
%MOMM*%
%LPD*%
G01*
G04 APERTURE LIST*
%ADD10C,0.050000*%
%ADD11C,0.200000*%
%ADD12C,0.100000*%
G04 APERTURE END LIST*
D10*
X13550000Y-9000000D02*
X22100000Y-9000000D01*
X22100000Y-14400000D01*
X13550000Y-14400000D01*
X13550000Y-9000000D01*
D11*
D12*
X14335000Y-11048500D02*
X14400000Y-11113500D01*
X14400000Y-11048500D02*
X14335000Y-11113500D01*
X14335000Y-11626500D02*
X14400000Y-11691500D01*
X14400000Y-11626500D02*
X14335000Y-11691500D01*
X18178030Y-14048400D02*
G75*
G02*
X18078970Y-14048400I-49530J0D01*
G01*
X18078970Y-14048400D02*
G75*
G02*
X18178030Y-14048400I49530J0D01*
G01*
X18686030Y-13946800D02*
G75*
G02*
X18586970Y-13946800I-49530J0D01*
G01*
X18586970Y-13946800D02*
G75*
G02*
X18686030Y-13946800I49530J0D01*
G01*
X18686030Y-14150000D02*
G75*
G02*
X18586970Y-14150000I-49530J0D01*
G01*
X18586970Y-14150000D02*
G75*
G02*
X18686030Y-14150000I49530J0D01*
G01*
D11*
X13808277Y-14713984D02*
X13808277Y-14513984D01*
X13808277Y-14513984D02*
X13855896Y-14513984D01*
X13855896Y-14513984D02*
X13884467Y-14523508D01*
X13884467Y-14523508D02*
X13903515Y-14542555D01*
X13903515Y-14542555D02*
X13913039Y-14561603D01*
X13913039Y-14561603D02*
X13922562Y-14599698D01*
X13922562Y-14599698D02*
X13922562Y-14628269D01*
X13922562Y-14628269D02*
X13913039Y-14666365D01*
X13913039Y-14666365D02*
X13903515Y-14685412D01*
X13903515Y-14685412D02*
X13884467Y-14704460D01*
X13884467Y-14704460D02*
X13855896Y-14713984D01*
X13855896Y-14713984D02*
X13808277Y-14713984D01*
X14008277Y-14713984D02*
X14008277Y-14580650D01*
X14008277Y-14618746D02*
X14017801Y-14599698D01*
X14017801Y-14599698D02*
X14027324Y-14590174D01*
X14027324Y-14590174D02*
X14046372Y-14580650D01*
X14046372Y-14580650D02*
X14065420Y-14580650D01*
X14132086Y-14713984D02*
X14132086Y-14580650D01*
X14132086Y-14513984D02*
X14122562Y-14523508D01*
X14122562Y-14523508D02*
X14132086Y-14533031D01*
X14132086Y-14533031D02*
X14141610Y-14523508D01*
X14141610Y-14523508D02*
X14132086Y-14513984D01*
X14132086Y-14513984D02*
X14132086Y-14533031D01*
X14255896Y-14713984D02*
X14236848Y-14704460D01*
X14236848Y-14704460D02*
X14227324Y-14685412D01*
X14227324Y-14685412D02*
X14227324Y-14513984D01*
X14360658Y-14713984D02*
X14341610Y-14704460D01*
X14341610Y-14704460D02*
X14332086Y-14685412D01*
X14332086Y-14685412D02*
X14332086Y-14513984D01*
X14589229Y-14713984D02*
X14589229Y-14513984D01*
X14589229Y-14513984D02*
X14655896Y-14656841D01*
X14655896Y-14656841D02*
X14722562Y-14513984D01*
X14722562Y-14513984D02*
X14722562Y-14713984D01*
X14903515Y-14713984D02*
X14903515Y-14609222D01*
X14903515Y-14609222D02*
X14893991Y-14590174D01*
X14893991Y-14590174D02*
X14874943Y-14580650D01*
X14874943Y-14580650D02*
X14836848Y-14580650D01*
X14836848Y-14580650D02*
X14817801Y-14590174D01*
X14903515Y-14704460D02*
X14884467Y-14713984D01*
X14884467Y-14713984D02*
X14836848Y-14713984D01*
X14836848Y-14713984D02*
X14817801Y-14704460D01*
X14817801Y-14704460D02*
X14808277Y-14685412D01*
X14808277Y-14685412D02*
X14808277Y-14666365D01*
X14808277Y-14666365D02*
X14817801Y-14647317D01*
X14817801Y-14647317D02*
X14836848Y-14637793D01*
X14836848Y-14637793D02*
X14884467Y-14637793D01*
X14884467Y-14637793D02*
X14903515Y-14628269D01*
X14998753Y-14580650D02*
X14998753Y-14780650D01*
X14998753Y-14590174D02*
X15017801Y-14580650D01*
X15017801Y-14580650D02*
X15055896Y-14580650D01*
X15055896Y-14580650D02*
X15074943Y-14590174D01*
X15074943Y-14590174D02*
X15084467Y-14599698D01*
X15084467Y-14599698D02*
X15093991Y-14618746D01*
X15093991Y-14618746D02*
X15093991Y-14675888D01*
X15093991Y-14675888D02*
X15084467Y-14694936D01*
X15084467Y-14694936D02*
X15074943Y-14704460D01*
X15074943Y-14704460D02*
X15055896Y-14713984D01*
X15055896Y-14713984D02*
X15017801Y-14713984D01*
X15017801Y-14713984D02*
X14998753Y-14704460D01*
X15179705Y-14694936D02*
X15189229Y-14704460D01*
X15189229Y-14704460D02*
X15179705Y-14713984D01*
X15179705Y-14713984D02*
X15170182Y-14704460D01*
X15170182Y-14704460D02*
X15179705Y-14694936D01*
X15179705Y-14694936D02*
X15179705Y-14713984D01*
X15179705Y-14590174D02*
X15189229Y-14599698D01*
X15189229Y-14599698D02*
X15179705Y-14609222D01*
X15179705Y-14609222D02*
X15170182Y-14599698D01*
X15170182Y-14599698D02*
X15179705Y-14590174D01*
X15179705Y-14590174D02*
X15179705Y-14609222D01*
D12*
X13482500Y-15010000D02*
X13547500Y-15075000D01*
X13547500Y-15010000D02*
X13482500Y-15075000D01*
D11*
X13846372Y-14933984D02*
X13865420Y-14933984D01*
X13865420Y-14933984D02*
X13884467Y-14943508D01*
X13884467Y-14943508D02*
X13893991Y-14953031D01*
X13893991Y-14953031D02*
X13903515Y-14972079D01*
X13903515Y-14972079D02*
X13913039Y-15010174D01*
X13913039Y-15010174D02*
X13913039Y-15057793D01*
X13913039Y-15057793D02*
X13903515Y-15095888D01*
X13903515Y-15095888D02*
X13893991Y-15114936D01*
X13893991Y-15114936D02*
X13884467Y-15124460D01*
X13884467Y-15124460D02*
X13865420Y-15133984D01*
X13865420Y-15133984D02*
X13846372Y-15133984D01*
X13846372Y-15133984D02*
X13827324Y-15124460D01*
X13827324Y-15124460D02*
X13817801Y-15114936D01*
X13817801Y-15114936D02*
X13808277Y-15095888D01*
X13808277Y-15095888D02*
X13798753Y-15057793D01*
X13798753Y-15057793D02*
X13798753Y-15010174D01*
X13798753Y-15010174D02*
X13808277Y-14972079D01*
X13808277Y-14972079D02*
X13817801Y-14953031D01*
X13817801Y-14953031D02*
X13827324Y-14943508D01*
X13827324Y-14943508D02*
X13846372Y-14933984D01*
X13998753Y-15114936D02*
X14008277Y-15124460D01*
X14008277Y-15124460D02*
X13998753Y-15133984D01*
X13998753Y-15133984D02*
X13989229Y-15124460D01*
X13989229Y-15124460D02*
X13998753Y-15114936D01*
X13998753Y-15114936D02*
X13998753Y-15133984D01*
X14179705Y-14933984D02*
X14141610Y-14933984D01*
X14141610Y-14933984D02*
X14122562Y-14943508D01*
X14122562Y-14943508D02*
X14113039Y-14953031D01*
X14113039Y-14953031D02*
X14093991Y-14981603D01*
X14093991Y-14981603D02*
X14084467Y-15019698D01*
X14084467Y-15019698D02*
X14084467Y-15095888D01*
X14084467Y-15095888D02*
X14093991Y-15114936D01*
X14093991Y-15114936D02*
X14103515Y-15124460D01*
X14103515Y-15124460D02*
X14122562Y-15133984D01*
X14122562Y-15133984D02*
X14160658Y-15133984D01*
X14160658Y-15133984D02*
X14179705Y-15124460D01*
X14179705Y-15124460D02*
X14189229Y-15114936D01*
X14189229Y-15114936D02*
X14198753Y-15095888D01*
X14198753Y-15095888D02*
X14198753Y-15048269D01*
X14198753Y-15048269D02*
X14189229Y-15029222D01*
X14189229Y-15029222D02*
X14179705Y-15019698D01*
X14179705Y-15019698D02*
X14160658Y-15010174D01*
X14160658Y-15010174D02*
X14122562Y-15010174D01*
X14122562Y-15010174D02*
X14103515Y-15019698D01*
X14103515Y-15019698D02*
X14093991Y-15029222D01*
X14093991Y-15029222D02*
X14084467Y-15048269D01*
X14379705Y-14933984D02*
X14284467Y-14933984D01*
X14284467Y-14933984D02*
X14274943Y-15029222D01*
X14274943Y-15029222D02*
X14284467Y-15019698D01*
X14284467Y-15019698D02*
X14303515Y-15010174D01*
X14303515Y-15010174D02*
X14351134Y-15010174D01*
X14351134Y-15010174D02*
X14370182Y-15019698D01*
X14370182Y-15019698D02*
X14379705Y-15029222D01*
X14379705Y-15029222D02*
X14389229Y-15048269D01*
X14389229Y-15048269D02*
X14389229Y-15095888D01*
X14389229Y-15095888D02*
X14379705Y-15114936D01*
X14379705Y-15114936D02*
X14370182Y-15124460D01*
X14370182Y-15124460D02*
X14351134Y-15133984D01*
X14351134Y-15133984D02*
X14303515Y-15133984D01*
X14303515Y-15133984D02*
X14284467Y-15124460D01*
X14284467Y-15124460D02*
X14274943Y-15114936D01*
X14513039Y-14933984D02*
X14532086Y-14933984D01*
X14532086Y-14933984D02*
X14551134Y-14943508D01*
X14551134Y-14943508D02*
X14560658Y-14953031D01*
X14560658Y-14953031D02*
X14570182Y-14972079D01*
X14570182Y-14972079D02*
X14579705Y-15010174D01*
X14579705Y-15010174D02*
X14579705Y-15057793D01*
X14579705Y-15057793D02*
X14570182Y-15095888D01*
X14570182Y-15095888D02*
X14560658Y-15114936D01*
X14560658Y-15114936D02*
X14551134Y-15124460D01*
X14551134Y-15124460D02*
X14532086Y-15133984D01*
X14532086Y-15133984D02*
X14513039Y-15133984D01*
X14513039Y-15133984D02*
X14493991Y-15124460D01*
X14493991Y-15124460D02*
X14484467Y-15114936D01*
X14484467Y-15114936D02*
X14474943Y-15095888D01*
X14474943Y-15095888D02*
X14465420Y-15057793D01*
X14465420Y-15057793D02*
X14465420Y-15010174D01*
X14465420Y-15010174D02*
X14474943Y-14972079D01*
X14474943Y-14972079D02*
X14484467Y-14953031D01*
X14484467Y-14953031D02*
X14493991Y-14943508D01*
X14493991Y-14943508D02*
X14513039Y-14933984D01*
X14665420Y-15133984D02*
X14665420Y-15000650D01*
X14665420Y-15019698D02*
X14674943Y-15010174D01*
X14674943Y-15010174D02*
X14693991Y-15000650D01*
X14693991Y-15000650D02*
X14722563Y-15000650D01*
X14722563Y-15000650D02*
X14741610Y-15010174D01*
X14741610Y-15010174D02*
X14751134Y-15029222D01*
X14751134Y-15029222D02*
X14751134Y-15133984D01*
X14751134Y-15029222D02*
X14760658Y-15010174D01*
X14760658Y-15010174D02*
X14779705Y-15000650D01*
X14779705Y-15000650D02*
X14808277Y-15000650D01*
X14808277Y-15000650D02*
X14827324Y-15010174D01*
X14827324Y-15010174D02*
X14836848Y-15029222D01*
X14836848Y-15029222D02*
X14836848Y-15133984D01*
X14932086Y-15133984D02*
X14932086Y-15000650D01*
X14932086Y-15019698D02*
X14941610Y-15010174D01*
X14941610Y-15010174D02*
X14960658Y-15000650D01*
X14960658Y-15000650D02*
X14989229Y-15000650D01*
X14989229Y-15000650D02*
X15008277Y-15010174D01*
X15008277Y-15010174D02*
X15017801Y-15029222D01*
X15017801Y-15029222D02*
X15017801Y-15133984D01*
X15017801Y-15029222D02*
X15027324Y-15010174D01*
X15027324Y-15010174D02*
X15046372Y-15000650D01*
X15046372Y-15000650D02*
X15074943Y-15000650D01*
X15074943Y-15000650D02*
X15093991Y-15010174D01*
X15093991Y-15010174D02*
X15103515Y-15029222D01*
X15103515Y-15029222D02*
X15103515Y-15133984D01*
X15493991Y-14924460D02*
X15322563Y-15181603D01*
X15751134Y-14933984D02*
X15770182Y-14933984D01*
X15770182Y-14933984D02*
X15789229Y-14943508D01*
X15789229Y-14943508D02*
X15798753Y-14953031D01*
X15798753Y-14953031D02*
X15808277Y-14972079D01*
X15808277Y-14972079D02*
X15817801Y-15010174D01*
X15817801Y-15010174D02*
X15817801Y-15057793D01*
X15817801Y-15057793D02*
X15808277Y-15095888D01*
X15808277Y-15095888D02*
X15798753Y-15114936D01*
X15798753Y-15114936D02*
X15789229Y-15124460D01*
X15789229Y-15124460D02*
X15770182Y-15133984D01*
X15770182Y-15133984D02*
X15751134Y-15133984D01*
X15751134Y-15133984D02*
X15732086Y-15124460D01*
X15732086Y-15124460D02*
X15722563Y-15114936D01*
X15722563Y-15114936D02*
X15713039Y-15095888D01*
X15713039Y-15095888D02*
X15703515Y-15057793D01*
X15703515Y-15057793D02*
X15703515Y-15010174D01*
X15703515Y-15010174D02*
X15713039Y-14972079D01*
X15713039Y-14972079D02*
X15722563Y-14953031D01*
X15722563Y-14953031D02*
X15732086Y-14943508D01*
X15732086Y-14943508D02*
X15751134Y-14933984D01*
X15903515Y-15114936D02*
X15913039Y-15124460D01*
X15913039Y-15124460D02*
X15903515Y-15133984D01*
X15903515Y-15133984D02*
X15893991Y-15124460D01*
X15893991Y-15124460D02*
X15903515Y-15114936D01*
X15903515Y-15114936D02*
X15903515Y-15133984D01*
X16036848Y-14933984D02*
X16055896Y-14933984D01*
X16055896Y-14933984D02*
X16074944Y-14943508D01*
X16074944Y-14943508D02*
X16084467Y-14953031D01*
X16084467Y-14953031D02*
X16093991Y-14972079D01*
X16093991Y-14972079D02*
X16103515Y-15010174D01*
X16103515Y-15010174D02*
X16103515Y-15057793D01*
X16103515Y-15057793D02*
X16093991Y-15095888D01*
X16093991Y-15095888D02*
X16084467Y-15114936D01*
X16084467Y-15114936D02*
X16074944Y-15124460D01*
X16074944Y-15124460D02*
X16055896Y-15133984D01*
X16055896Y-15133984D02*
X16036848Y-15133984D01*
X16036848Y-15133984D02*
X16017801Y-15124460D01*
X16017801Y-15124460D02*
X16008277Y-15114936D01*
X16008277Y-15114936D02*
X15998753Y-15095888D01*
X15998753Y-15095888D02*
X15989229Y-15057793D01*
X15989229Y-15057793D02*
X15989229Y-15010174D01*
X15989229Y-15010174D02*
X15998753Y-14972079D01*
X15998753Y-14972079D02*
X16008277Y-14953031D01*
X16008277Y-14953031D02*
X16017801Y-14943508D01*
X16017801Y-14943508D02*
X16036848Y-14933984D01*
X16179706Y-14953031D02*
X16189229Y-14943508D01*
X16189229Y-14943508D02*
X16208277Y-14933984D01*
X16208277Y-14933984D02*
X16255896Y-14933984D01*
X16255896Y-14933984D02*
X16274944Y-14943508D01*
X16274944Y-14943508D02*
X16284467Y-14953031D01*
X16284467Y-14953031D02*
X16293991Y-14972079D01*
X16293991Y-14972079D02*
X16293991Y-14991127D01*
X16293991Y-14991127D02*
X16284467Y-15019698D01*
X16284467Y-15019698D02*
X16170182Y-15133984D01*
X16170182Y-15133984D02*
X16293991Y-15133984D01*
X16474944Y-14933984D02*
X16379706Y-14933984D01*
X16379706Y-14933984D02*
X16370182Y-15029222D01*
X16370182Y-15029222D02*
X16379706Y-15019698D01*
X16379706Y-15019698D02*
X16398753Y-15010174D01*
X16398753Y-15010174D02*
X16446372Y-15010174D01*
X16446372Y-15010174D02*
X16465420Y-15019698D01*
X16465420Y-15019698D02*
X16474944Y-15029222D01*
X16474944Y-15029222D02*
X16484467Y-15048269D01*
X16484467Y-15048269D02*
X16484467Y-15095888D01*
X16484467Y-15095888D02*
X16474944Y-15114936D01*
X16474944Y-15114936D02*
X16465420Y-15124460D01*
X16465420Y-15124460D02*
X16446372Y-15133984D01*
X16446372Y-15133984D02*
X16398753Y-15133984D01*
X16398753Y-15133984D02*
X16379706Y-15124460D01*
X16379706Y-15124460D02*
X16370182Y-15114936D01*
X16655896Y-14933984D02*
X16617801Y-14933984D01*
X16617801Y-14933984D02*
X16598753Y-14943508D01*
X16598753Y-14943508D02*
X16589229Y-14953031D01*
X16589229Y-14953031D02*
X16570182Y-14981603D01*
X16570182Y-14981603D02*
X16560658Y-15019698D01*
X16560658Y-15019698D02*
X16560658Y-15095888D01*
X16560658Y-15095888D02*
X16570182Y-15114936D01*
X16570182Y-15114936D02*
X16579706Y-15124460D01*
X16579706Y-15124460D02*
X16598753Y-15133984D01*
X16598753Y-15133984D02*
X16636848Y-15133984D01*
X16636848Y-15133984D02*
X16655896Y-15124460D01*
X16655896Y-15124460D02*
X16665420Y-15114936D01*
X16665420Y-15114936D02*
X16674944Y-15095888D01*
X16674944Y-15095888D02*
X16674944Y-15048269D01*
X16674944Y-15048269D02*
X16665420Y-15029222D01*
X16665420Y-15029222D02*
X16655896Y-15019698D01*
X16655896Y-15019698D02*
X16636848Y-15010174D01*
X16636848Y-15010174D02*
X16598753Y-15010174D01*
X16598753Y-15010174D02*
X16579706Y-15019698D01*
X16579706Y-15019698D02*
X16570182Y-15029222D01*
X16570182Y-15029222D02*
X16560658Y-15048269D01*
X16751134Y-14933984D02*
X16751134Y-14972079D01*
X16827325Y-14933984D02*
X16827325Y-14972079D01*
X17122563Y-15210174D02*
X17113039Y-15200650D01*
X17113039Y-15200650D02*
X17093991Y-15172079D01*
X17093991Y-15172079D02*
X17084468Y-15153031D01*
X17084468Y-15153031D02*
X17074944Y-15124460D01*
X17074944Y-15124460D02*
X17065420Y-15076841D01*
X17065420Y-15076841D02*
X17065420Y-15038746D01*
X17065420Y-15038746D02*
X17074944Y-14991127D01*
X17074944Y-14991127D02*
X17084468Y-14962555D01*
X17084468Y-14962555D02*
X17093991Y-14943508D01*
X17093991Y-14943508D02*
X17113039Y-14914936D01*
X17113039Y-14914936D02*
X17122563Y-14905412D01*
X17189230Y-14953031D02*
X17198753Y-14943508D01*
X17198753Y-14943508D02*
X17217801Y-14933984D01*
X17217801Y-14933984D02*
X17265420Y-14933984D01*
X17265420Y-14933984D02*
X17284468Y-14943508D01*
X17284468Y-14943508D02*
X17293991Y-14953031D01*
X17293991Y-14953031D02*
X17303515Y-14972079D01*
X17303515Y-14972079D02*
X17303515Y-14991127D01*
X17303515Y-14991127D02*
X17293991Y-15019698D01*
X17293991Y-15019698D02*
X17179706Y-15133984D01*
X17179706Y-15133984D02*
X17303515Y-15133984D01*
X17541611Y-15133984D02*
X17541611Y-14933984D01*
X17627325Y-15133984D02*
X17627325Y-15029222D01*
X17627325Y-15029222D02*
X17617801Y-15010174D01*
X17617801Y-15010174D02*
X17598753Y-15000650D01*
X17598753Y-15000650D02*
X17570182Y-15000650D01*
X17570182Y-15000650D02*
X17551134Y-15010174D01*
X17551134Y-15010174D02*
X17541611Y-15019698D01*
X17751134Y-15133984D02*
X17732087Y-15124460D01*
X17732087Y-15124460D02*
X17722563Y-15114936D01*
X17722563Y-15114936D02*
X17713039Y-15095888D01*
X17713039Y-15095888D02*
X17713039Y-15038746D01*
X17713039Y-15038746D02*
X17722563Y-15019698D01*
X17722563Y-15019698D02*
X17732087Y-15010174D01*
X17732087Y-15010174D02*
X17751134Y-15000650D01*
X17751134Y-15000650D02*
X17779706Y-15000650D01*
X17779706Y-15000650D02*
X17798753Y-15010174D01*
X17798753Y-15010174D02*
X17808277Y-15019698D01*
X17808277Y-15019698D02*
X17817801Y-15038746D01*
X17817801Y-15038746D02*
X17817801Y-15095888D01*
X17817801Y-15095888D02*
X17808277Y-15114936D01*
X17808277Y-15114936D02*
X17798753Y-15124460D01*
X17798753Y-15124460D02*
X17779706Y-15133984D01*
X17779706Y-15133984D02*
X17751134Y-15133984D01*
X17932087Y-15133984D02*
X17913039Y-15124460D01*
X17913039Y-15124460D02*
X17903515Y-15105412D01*
X17903515Y-15105412D02*
X17903515Y-14933984D01*
X18084468Y-15124460D02*
X18065420Y-15133984D01*
X18065420Y-15133984D02*
X18027325Y-15133984D01*
X18027325Y-15133984D02*
X18008277Y-15124460D01*
X18008277Y-15124460D02*
X17998753Y-15105412D01*
X17998753Y-15105412D02*
X17998753Y-15029222D01*
X17998753Y-15029222D02*
X18008277Y-15010174D01*
X18008277Y-15010174D02*
X18027325Y-15000650D01*
X18027325Y-15000650D02*
X18065420Y-15000650D01*
X18065420Y-15000650D02*
X18084468Y-15010174D01*
X18084468Y-15010174D02*
X18093992Y-15029222D01*
X18093992Y-15029222D02*
X18093992Y-15048269D01*
X18093992Y-15048269D02*
X17998753Y-15067317D01*
X18170182Y-15124460D02*
X18189230Y-15133984D01*
X18189230Y-15133984D02*
X18227325Y-15133984D01*
X18227325Y-15133984D02*
X18246373Y-15124460D01*
X18246373Y-15124460D02*
X18255896Y-15105412D01*
X18255896Y-15105412D02*
X18255896Y-15095888D01*
X18255896Y-15095888D02*
X18246373Y-15076841D01*
X18246373Y-15076841D02*
X18227325Y-15067317D01*
X18227325Y-15067317D02*
X18198753Y-15067317D01*
X18198753Y-15067317D02*
X18179706Y-15057793D01*
X18179706Y-15057793D02*
X18170182Y-15038746D01*
X18170182Y-15038746D02*
X18170182Y-15029222D01*
X18170182Y-15029222D02*
X18179706Y-15010174D01*
X18179706Y-15010174D02*
X18198753Y-15000650D01*
X18198753Y-15000650D02*
X18227325Y-15000650D01*
X18227325Y-15000650D02*
X18246373Y-15010174D01*
X18322563Y-15210174D02*
X18332087Y-15200650D01*
X18332087Y-15200650D02*
X18351134Y-15172079D01*
X18351134Y-15172079D02*
X18360658Y-15153031D01*
X18360658Y-15153031D02*
X18370182Y-15124460D01*
X18370182Y-15124460D02*
X18379706Y-15076841D01*
X18379706Y-15076841D02*
X18379706Y-15038746D01*
X18379706Y-15038746D02*
X18370182Y-14991127D01*
X18370182Y-14991127D02*
X18360658Y-14962555D01*
X18360658Y-14962555D02*
X18351134Y-14943508D01*
X18351134Y-14943508D02*
X18332087Y-14914936D01*
X18332087Y-14914936D02*
X18322563Y-14905412D01*
X18684468Y-15210174D02*
X18674944Y-15200650D01*
X18674944Y-15200650D02*
X18655896Y-15172079D01*
X18655896Y-15172079D02*
X18646373Y-15153031D01*
X18646373Y-15153031D02*
X18636849Y-15124460D01*
X18636849Y-15124460D02*
X18627325Y-15076841D01*
X18627325Y-15076841D02*
X18627325Y-15038746D01*
X18627325Y-15038746D02*
X18636849Y-14991127D01*
X18636849Y-14991127D02*
X18646373Y-14962555D01*
X18646373Y-14962555D02*
X18655896Y-14943508D01*
X18655896Y-14943508D02*
X18674944Y-14914936D01*
X18674944Y-14914936D02*
X18684468Y-14905412D01*
X18760658Y-15000650D02*
X18760658Y-15133984D01*
X18760658Y-15019698D02*
X18770182Y-15010174D01*
X18770182Y-15010174D02*
X18789230Y-15000650D01*
X18789230Y-15000650D02*
X18817801Y-15000650D01*
X18817801Y-15000650D02*
X18836849Y-15010174D01*
X18836849Y-15010174D02*
X18846373Y-15029222D01*
X18846373Y-15029222D02*
X18846373Y-15133984D01*
X18970182Y-15133984D02*
X18951134Y-15124460D01*
X18951134Y-15124460D02*
X18941611Y-15114936D01*
X18941611Y-15114936D02*
X18932087Y-15095888D01*
X18932087Y-15095888D02*
X18932087Y-15038746D01*
X18932087Y-15038746D02*
X18941611Y-15019698D01*
X18941611Y-15019698D02*
X18951134Y-15010174D01*
X18951134Y-15010174D02*
X18970182Y-15000650D01*
X18970182Y-15000650D02*
X18998754Y-15000650D01*
X18998754Y-15000650D02*
X19017801Y-15010174D01*
X19017801Y-15010174D02*
X19027325Y-15019698D01*
X19027325Y-15019698D02*
X19036849Y-15038746D01*
X19036849Y-15038746D02*
X19036849Y-15095888D01*
X19036849Y-15095888D02*
X19027325Y-15114936D01*
X19027325Y-15114936D02*
X19017801Y-15124460D01*
X19017801Y-15124460D02*
X18998754Y-15133984D01*
X18998754Y-15133984D02*
X18970182Y-15133984D01*
X19093992Y-15000650D02*
X19170182Y-15000650D01*
X19122563Y-14933984D02*
X19122563Y-15105412D01*
X19122563Y-15105412D02*
X19132087Y-15124460D01*
X19132087Y-15124460D02*
X19151134Y-15133984D01*
X19151134Y-15133984D02*
X19170182Y-15133984D01*
X19389230Y-15000650D02*
X19389230Y-15200650D01*
X19389230Y-15010174D02*
X19408277Y-15000650D01*
X19408277Y-15000650D02*
X19446373Y-15000650D01*
X19446373Y-15000650D02*
X19465420Y-15010174D01*
X19465420Y-15010174D02*
X19474944Y-15019698D01*
X19474944Y-15019698D02*
X19484468Y-15038746D01*
X19484468Y-15038746D02*
X19484468Y-15095888D01*
X19484468Y-15095888D02*
X19474944Y-15114936D01*
X19474944Y-15114936D02*
X19465420Y-15124460D01*
X19465420Y-15124460D02*
X19446373Y-15133984D01*
X19446373Y-15133984D02*
X19408277Y-15133984D01*
X19408277Y-15133984D02*
X19389230Y-15124460D01*
X19598754Y-15133984D02*
X19579706Y-15124460D01*
X19579706Y-15124460D02*
X19570182Y-15105412D01*
X19570182Y-15105412D02*
X19570182Y-14933984D01*
X19760658Y-15133984D02*
X19760658Y-15029222D01*
X19760658Y-15029222D02*
X19751135Y-15010174D01*
X19751135Y-15010174D02*
X19732087Y-15000650D01*
X19732087Y-15000650D02*
X19693992Y-15000650D01*
X19693992Y-15000650D02*
X19674944Y-15010174D01*
X19760658Y-15124460D02*
X19741611Y-15133984D01*
X19741611Y-15133984D02*
X19693992Y-15133984D01*
X19693992Y-15133984D02*
X19674944Y-15124460D01*
X19674944Y-15124460D02*
X19665420Y-15105412D01*
X19665420Y-15105412D02*
X19665420Y-15086365D01*
X19665420Y-15086365D02*
X19674944Y-15067317D01*
X19674944Y-15067317D02*
X19693992Y-15057793D01*
X19693992Y-15057793D02*
X19741611Y-15057793D01*
X19741611Y-15057793D02*
X19760658Y-15048269D01*
X19827325Y-15000650D02*
X19903515Y-15000650D01*
X19855896Y-14933984D02*
X19855896Y-15105412D01*
X19855896Y-15105412D02*
X19865420Y-15124460D01*
X19865420Y-15124460D02*
X19884468Y-15133984D01*
X19884468Y-15133984D02*
X19903515Y-15133984D01*
X20046373Y-15124460D02*
X20027325Y-15133984D01*
X20027325Y-15133984D02*
X19989230Y-15133984D01*
X19989230Y-15133984D02*
X19970182Y-15124460D01*
X19970182Y-15124460D02*
X19960658Y-15105412D01*
X19960658Y-15105412D02*
X19960658Y-15029222D01*
X19960658Y-15029222D02*
X19970182Y-15010174D01*
X19970182Y-15010174D02*
X19989230Y-15000650D01*
X19989230Y-15000650D02*
X20027325Y-15000650D01*
X20027325Y-15000650D02*
X20046373Y-15010174D01*
X20046373Y-15010174D02*
X20055896Y-15029222D01*
X20055896Y-15029222D02*
X20055896Y-15048269D01*
X20055896Y-15048269D02*
X19960658Y-15067317D01*
X20227325Y-15133984D02*
X20227325Y-14933984D01*
X20227325Y-15124460D02*
X20208277Y-15133984D01*
X20208277Y-15133984D02*
X20170182Y-15133984D01*
X20170182Y-15133984D02*
X20151135Y-15124460D01*
X20151135Y-15124460D02*
X20141611Y-15114936D01*
X20141611Y-15114936D02*
X20132087Y-15095888D01*
X20132087Y-15095888D02*
X20132087Y-15038746D01*
X20132087Y-15038746D02*
X20141611Y-15019698D01*
X20141611Y-15019698D02*
X20151135Y-15010174D01*
X20151135Y-15010174D02*
X20170182Y-15000650D01*
X20170182Y-15000650D02*
X20208277Y-15000650D01*
X20208277Y-15000650D02*
X20227325Y-15010174D01*
X20303516Y-15210174D02*
X20313039Y-15200650D01*
X20313039Y-15200650D02*
X20332087Y-15172079D01*
X20332087Y-15172079D02*
X20341611Y-15153031D01*
X20341611Y-15153031D02*
X20351135Y-15124460D01*
X20351135Y-15124460D02*
X20360658Y-15076841D01*
X20360658Y-15076841D02*
X20360658Y-15038746D01*
X20360658Y-15038746D02*
X20351135Y-14991127D01*
X20351135Y-14991127D02*
X20341611Y-14962555D01*
X20341611Y-14962555D02*
X20332087Y-14943508D01*
X20332087Y-14943508D02*
X20313039Y-14914936D01*
X20313039Y-14914936D02*
X20303516Y-14905412D01*
D12*
X13547500Y-15306500D02*
G75*
G02*
X13448440Y-15306500I-49530J0D01*
G01*
X13448440Y-15306500D02*
G75*
G02*
X13547500Y-15306500I49530J0D01*
G01*
D11*
X13846372Y-15197984D02*
X13865420Y-15197984D01*
X13865420Y-15197984D02*
X13884467Y-15207508D01*
X13884467Y-15207508D02*
X13893991Y-15217031D01*
X13893991Y-15217031D02*
X13903515Y-15236079D01*
X13903515Y-15236079D02*
X13913039Y-15274174D01*
X13913039Y-15274174D02*
X13913039Y-15321793D01*
X13913039Y-15321793D02*
X13903515Y-15359888D01*
X13903515Y-15359888D02*
X13893991Y-15378936D01*
X13893991Y-15378936D02*
X13884467Y-15388460D01*
X13884467Y-15388460D02*
X13865420Y-15397984D01*
X13865420Y-15397984D02*
X13846372Y-15397984D01*
X13846372Y-15397984D02*
X13827324Y-15388460D01*
X13827324Y-15388460D02*
X13817801Y-15378936D01*
X13817801Y-15378936D02*
X13808277Y-15359888D01*
X13808277Y-15359888D02*
X13798753Y-15321793D01*
X13798753Y-15321793D02*
X13798753Y-15274174D01*
X13798753Y-15274174D02*
X13808277Y-15236079D01*
X13808277Y-15236079D02*
X13817801Y-15217031D01*
X13817801Y-15217031D02*
X13827324Y-15207508D01*
X13827324Y-15207508D02*
X13846372Y-15197984D01*
X13998753Y-15378936D02*
X14008277Y-15388460D01*
X14008277Y-15388460D02*
X13998753Y-15397984D01*
X13998753Y-15397984D02*
X13989229Y-15388460D01*
X13989229Y-15388460D02*
X13998753Y-15378936D01*
X13998753Y-15378936D02*
X13998753Y-15397984D01*
X14103515Y-15397984D02*
X14141610Y-15397984D01*
X14141610Y-15397984D02*
X14160658Y-15388460D01*
X14160658Y-15388460D02*
X14170182Y-15378936D01*
X14170182Y-15378936D02*
X14189229Y-15350365D01*
X14189229Y-15350365D02*
X14198753Y-15312269D01*
X14198753Y-15312269D02*
X14198753Y-15236079D01*
X14198753Y-15236079D02*
X14189229Y-15217031D01*
X14189229Y-15217031D02*
X14179705Y-15207508D01*
X14179705Y-15207508D02*
X14160658Y-15197984D01*
X14160658Y-15197984D02*
X14122562Y-15197984D01*
X14122562Y-15197984D02*
X14103515Y-15207508D01*
X14103515Y-15207508D02*
X14093991Y-15217031D01*
X14093991Y-15217031D02*
X14084467Y-15236079D01*
X14084467Y-15236079D02*
X14084467Y-15283698D01*
X14084467Y-15283698D02*
X14093991Y-15302746D01*
X14093991Y-15302746D02*
X14103515Y-15312269D01*
X14103515Y-15312269D02*
X14122562Y-15321793D01*
X14122562Y-15321793D02*
X14160658Y-15321793D01*
X14160658Y-15321793D02*
X14179705Y-15312269D01*
X14179705Y-15312269D02*
X14189229Y-15302746D01*
X14189229Y-15302746D02*
X14198753Y-15283698D01*
X14293991Y-15397984D02*
X14332086Y-15397984D01*
X14332086Y-15397984D02*
X14351134Y-15388460D01*
X14351134Y-15388460D02*
X14360658Y-15378936D01*
X14360658Y-15378936D02*
X14379705Y-15350365D01*
X14379705Y-15350365D02*
X14389229Y-15312269D01*
X14389229Y-15312269D02*
X14389229Y-15236079D01*
X14389229Y-15236079D02*
X14379705Y-15217031D01*
X14379705Y-15217031D02*
X14370182Y-15207508D01*
X14370182Y-15207508D02*
X14351134Y-15197984D01*
X14351134Y-15197984D02*
X14313039Y-15197984D01*
X14313039Y-15197984D02*
X14293991Y-15207508D01*
X14293991Y-15207508D02*
X14284467Y-15217031D01*
X14284467Y-15217031D02*
X14274943Y-15236079D01*
X14274943Y-15236079D02*
X14274943Y-15283698D01*
X14274943Y-15283698D02*
X14284467Y-15302746D01*
X14284467Y-15302746D02*
X14293991Y-15312269D01*
X14293991Y-15312269D02*
X14313039Y-15321793D01*
X14313039Y-15321793D02*
X14351134Y-15321793D01*
X14351134Y-15321793D02*
X14370182Y-15312269D01*
X14370182Y-15312269D02*
X14379705Y-15302746D01*
X14379705Y-15302746D02*
X14389229Y-15283698D01*
X14579705Y-15397984D02*
X14465420Y-15397984D01*
X14522562Y-15397984D02*
X14522562Y-15197984D01*
X14522562Y-15197984D02*
X14503515Y-15226555D01*
X14503515Y-15226555D02*
X14484467Y-15245603D01*
X14484467Y-15245603D02*
X14465420Y-15255127D01*
X14665420Y-15397984D02*
X14665420Y-15264650D01*
X14665420Y-15283698D02*
X14674943Y-15274174D01*
X14674943Y-15274174D02*
X14693991Y-15264650D01*
X14693991Y-15264650D02*
X14722563Y-15264650D01*
X14722563Y-15264650D02*
X14741610Y-15274174D01*
X14741610Y-15274174D02*
X14751134Y-15293222D01*
X14751134Y-15293222D02*
X14751134Y-15397984D01*
X14751134Y-15293222D02*
X14760658Y-15274174D01*
X14760658Y-15274174D02*
X14779705Y-15264650D01*
X14779705Y-15264650D02*
X14808277Y-15264650D01*
X14808277Y-15264650D02*
X14827324Y-15274174D01*
X14827324Y-15274174D02*
X14836848Y-15293222D01*
X14836848Y-15293222D02*
X14836848Y-15397984D01*
X14932086Y-15397984D02*
X14932086Y-15264650D01*
X14932086Y-15283698D02*
X14941610Y-15274174D01*
X14941610Y-15274174D02*
X14960658Y-15264650D01*
X14960658Y-15264650D02*
X14989229Y-15264650D01*
X14989229Y-15264650D02*
X15008277Y-15274174D01*
X15008277Y-15274174D02*
X15017801Y-15293222D01*
X15017801Y-15293222D02*
X15017801Y-15397984D01*
X15017801Y-15293222D02*
X15027324Y-15274174D01*
X15027324Y-15274174D02*
X15046372Y-15264650D01*
X15046372Y-15264650D02*
X15074943Y-15264650D01*
X15074943Y-15264650D02*
X15093991Y-15274174D01*
X15093991Y-15274174D02*
X15103515Y-15293222D01*
X15103515Y-15293222D02*
X15103515Y-15397984D01*
X15493991Y-15188460D02*
X15322563Y-15445603D01*
X15751134Y-15197984D02*
X15770182Y-15197984D01*
X15770182Y-15197984D02*
X15789229Y-15207508D01*
X15789229Y-15207508D02*
X15798753Y-15217031D01*
X15798753Y-15217031D02*
X15808277Y-15236079D01*
X15808277Y-15236079D02*
X15817801Y-15274174D01*
X15817801Y-15274174D02*
X15817801Y-15321793D01*
X15817801Y-15321793D02*
X15808277Y-15359888D01*
X15808277Y-15359888D02*
X15798753Y-15378936D01*
X15798753Y-15378936D02*
X15789229Y-15388460D01*
X15789229Y-15388460D02*
X15770182Y-15397984D01*
X15770182Y-15397984D02*
X15751134Y-15397984D01*
X15751134Y-15397984D02*
X15732086Y-15388460D01*
X15732086Y-15388460D02*
X15722563Y-15378936D01*
X15722563Y-15378936D02*
X15713039Y-15359888D01*
X15713039Y-15359888D02*
X15703515Y-15321793D01*
X15703515Y-15321793D02*
X15703515Y-15274174D01*
X15703515Y-15274174D02*
X15713039Y-15236079D01*
X15713039Y-15236079D02*
X15722563Y-15217031D01*
X15722563Y-15217031D02*
X15732086Y-15207508D01*
X15732086Y-15207508D02*
X15751134Y-15197984D01*
X15903515Y-15378936D02*
X15913039Y-15388460D01*
X15913039Y-15388460D02*
X15903515Y-15397984D01*
X15903515Y-15397984D02*
X15893991Y-15388460D01*
X15893991Y-15388460D02*
X15903515Y-15378936D01*
X15903515Y-15378936D02*
X15903515Y-15397984D01*
X16036848Y-15197984D02*
X16055896Y-15197984D01*
X16055896Y-15197984D02*
X16074944Y-15207508D01*
X16074944Y-15207508D02*
X16084467Y-15217031D01*
X16084467Y-15217031D02*
X16093991Y-15236079D01*
X16093991Y-15236079D02*
X16103515Y-15274174D01*
X16103515Y-15274174D02*
X16103515Y-15321793D01*
X16103515Y-15321793D02*
X16093991Y-15359888D01*
X16093991Y-15359888D02*
X16084467Y-15378936D01*
X16084467Y-15378936D02*
X16074944Y-15388460D01*
X16074944Y-15388460D02*
X16055896Y-15397984D01*
X16055896Y-15397984D02*
X16036848Y-15397984D01*
X16036848Y-15397984D02*
X16017801Y-15388460D01*
X16017801Y-15388460D02*
X16008277Y-15378936D01*
X16008277Y-15378936D02*
X15998753Y-15359888D01*
X15998753Y-15359888D02*
X15989229Y-15321793D01*
X15989229Y-15321793D02*
X15989229Y-15274174D01*
X15989229Y-15274174D02*
X15998753Y-15236079D01*
X15998753Y-15236079D02*
X16008277Y-15217031D01*
X16008277Y-15217031D02*
X16017801Y-15207508D01*
X16017801Y-15207508D02*
X16036848Y-15197984D01*
X16170182Y-15197984D02*
X16293991Y-15197984D01*
X16293991Y-15197984D02*
X16227325Y-15274174D01*
X16227325Y-15274174D02*
X16255896Y-15274174D01*
X16255896Y-15274174D02*
X16274944Y-15283698D01*
X16274944Y-15283698D02*
X16284467Y-15293222D01*
X16284467Y-15293222D02*
X16293991Y-15312269D01*
X16293991Y-15312269D02*
X16293991Y-15359888D01*
X16293991Y-15359888D02*
X16284467Y-15378936D01*
X16284467Y-15378936D02*
X16274944Y-15388460D01*
X16274944Y-15388460D02*
X16255896Y-15397984D01*
X16255896Y-15397984D02*
X16198753Y-15397984D01*
X16198753Y-15397984D02*
X16179706Y-15388460D01*
X16179706Y-15388460D02*
X16170182Y-15378936D01*
X16389229Y-15397984D02*
X16427325Y-15397984D01*
X16427325Y-15397984D02*
X16446372Y-15388460D01*
X16446372Y-15388460D02*
X16455896Y-15378936D01*
X16455896Y-15378936D02*
X16474944Y-15350365D01*
X16474944Y-15350365D02*
X16484467Y-15312269D01*
X16484467Y-15312269D02*
X16484467Y-15236079D01*
X16484467Y-15236079D02*
X16474944Y-15217031D01*
X16474944Y-15217031D02*
X16465420Y-15207508D01*
X16465420Y-15207508D02*
X16446372Y-15197984D01*
X16446372Y-15197984D02*
X16408277Y-15197984D01*
X16408277Y-15197984D02*
X16389229Y-15207508D01*
X16389229Y-15207508D02*
X16379706Y-15217031D01*
X16379706Y-15217031D02*
X16370182Y-15236079D01*
X16370182Y-15236079D02*
X16370182Y-15283698D01*
X16370182Y-15283698D02*
X16379706Y-15302746D01*
X16379706Y-15302746D02*
X16389229Y-15312269D01*
X16389229Y-15312269D02*
X16408277Y-15321793D01*
X16408277Y-15321793D02*
X16446372Y-15321793D01*
X16446372Y-15321793D02*
X16465420Y-15312269D01*
X16465420Y-15312269D02*
X16474944Y-15302746D01*
X16474944Y-15302746D02*
X16484467Y-15283698D01*
X16608277Y-15197984D02*
X16627325Y-15197984D01*
X16627325Y-15197984D02*
X16646372Y-15207508D01*
X16646372Y-15207508D02*
X16655896Y-15217031D01*
X16655896Y-15217031D02*
X16665420Y-15236079D01*
X16665420Y-15236079D02*
X16674944Y-15274174D01*
X16674944Y-15274174D02*
X16674944Y-15321793D01*
X16674944Y-15321793D02*
X16665420Y-15359888D01*
X16665420Y-15359888D02*
X16655896Y-15378936D01*
X16655896Y-15378936D02*
X16646372Y-15388460D01*
X16646372Y-15388460D02*
X16627325Y-15397984D01*
X16627325Y-15397984D02*
X16608277Y-15397984D01*
X16608277Y-15397984D02*
X16589229Y-15388460D01*
X16589229Y-15388460D02*
X16579706Y-15378936D01*
X16579706Y-15378936D02*
X16570182Y-15359888D01*
X16570182Y-15359888D02*
X16560658Y-15321793D01*
X16560658Y-15321793D02*
X16560658Y-15274174D01*
X16560658Y-15274174D02*
X16570182Y-15236079D01*
X16570182Y-15236079D02*
X16579706Y-15217031D01*
X16579706Y-15217031D02*
X16589229Y-15207508D01*
X16589229Y-15207508D02*
X16608277Y-15197984D01*
X16751134Y-15197984D02*
X16751134Y-15236079D01*
X16827325Y-15197984D02*
X16827325Y-15236079D01*
X17122563Y-15474174D02*
X17113039Y-15464650D01*
X17113039Y-15464650D02*
X17093991Y-15436079D01*
X17093991Y-15436079D02*
X17084468Y-15417031D01*
X17084468Y-15417031D02*
X17074944Y-15388460D01*
X17074944Y-15388460D02*
X17065420Y-15340841D01*
X17065420Y-15340841D02*
X17065420Y-15302746D01*
X17065420Y-15302746D02*
X17074944Y-15255127D01*
X17074944Y-15255127D02*
X17084468Y-15226555D01*
X17084468Y-15226555D02*
X17093991Y-15207508D01*
X17093991Y-15207508D02*
X17113039Y-15178936D01*
X17113039Y-15178936D02*
X17122563Y-15169412D01*
X17179706Y-15197984D02*
X17303515Y-15197984D01*
X17303515Y-15197984D02*
X17236849Y-15274174D01*
X17236849Y-15274174D02*
X17265420Y-15274174D01*
X17265420Y-15274174D02*
X17284468Y-15283698D01*
X17284468Y-15283698D02*
X17293991Y-15293222D01*
X17293991Y-15293222D02*
X17303515Y-15312269D01*
X17303515Y-15312269D02*
X17303515Y-15359888D01*
X17303515Y-15359888D02*
X17293991Y-15378936D01*
X17293991Y-15378936D02*
X17284468Y-15388460D01*
X17284468Y-15388460D02*
X17265420Y-15397984D01*
X17265420Y-15397984D02*
X17208277Y-15397984D01*
X17208277Y-15397984D02*
X17189230Y-15388460D01*
X17189230Y-15388460D02*
X17179706Y-15378936D01*
X17541611Y-15397984D02*
X17541611Y-15197984D01*
X17627325Y-15397984D02*
X17627325Y-15293222D01*
X17627325Y-15293222D02*
X17617801Y-15274174D01*
X17617801Y-15274174D02*
X17598753Y-15264650D01*
X17598753Y-15264650D02*
X17570182Y-15264650D01*
X17570182Y-15264650D02*
X17551134Y-15274174D01*
X17551134Y-15274174D02*
X17541611Y-15283698D01*
X17751134Y-15397984D02*
X17732087Y-15388460D01*
X17732087Y-15388460D02*
X17722563Y-15378936D01*
X17722563Y-15378936D02*
X17713039Y-15359888D01*
X17713039Y-15359888D02*
X17713039Y-15302746D01*
X17713039Y-15302746D02*
X17722563Y-15283698D01*
X17722563Y-15283698D02*
X17732087Y-15274174D01*
X17732087Y-15274174D02*
X17751134Y-15264650D01*
X17751134Y-15264650D02*
X17779706Y-15264650D01*
X17779706Y-15264650D02*
X17798753Y-15274174D01*
X17798753Y-15274174D02*
X17808277Y-15283698D01*
X17808277Y-15283698D02*
X17817801Y-15302746D01*
X17817801Y-15302746D02*
X17817801Y-15359888D01*
X17817801Y-15359888D02*
X17808277Y-15378936D01*
X17808277Y-15378936D02*
X17798753Y-15388460D01*
X17798753Y-15388460D02*
X17779706Y-15397984D01*
X17779706Y-15397984D02*
X17751134Y-15397984D01*
X17932087Y-15397984D02*
X17913039Y-15388460D01*
X17913039Y-15388460D02*
X17903515Y-15369412D01*
X17903515Y-15369412D02*
X17903515Y-15197984D01*
X18084468Y-15388460D02*
X18065420Y-15397984D01*
X18065420Y-15397984D02*
X18027325Y-15397984D01*
X18027325Y-15397984D02*
X18008277Y-15388460D01*
X18008277Y-15388460D02*
X17998753Y-15369412D01*
X17998753Y-15369412D02*
X17998753Y-15293222D01*
X17998753Y-15293222D02*
X18008277Y-15274174D01*
X18008277Y-15274174D02*
X18027325Y-15264650D01*
X18027325Y-15264650D02*
X18065420Y-15264650D01*
X18065420Y-15264650D02*
X18084468Y-15274174D01*
X18084468Y-15274174D02*
X18093992Y-15293222D01*
X18093992Y-15293222D02*
X18093992Y-15312269D01*
X18093992Y-15312269D02*
X17998753Y-15331317D01*
X18170182Y-15388460D02*
X18189230Y-15397984D01*
X18189230Y-15397984D02*
X18227325Y-15397984D01*
X18227325Y-15397984D02*
X18246373Y-15388460D01*
X18246373Y-15388460D02*
X18255896Y-15369412D01*
X18255896Y-15369412D02*
X18255896Y-15359888D01*
X18255896Y-15359888D02*
X18246373Y-15340841D01*
X18246373Y-15340841D02*
X18227325Y-15331317D01*
X18227325Y-15331317D02*
X18198753Y-15331317D01*
X18198753Y-15331317D02*
X18179706Y-15321793D01*
X18179706Y-15321793D02*
X18170182Y-15302746D01*
X18170182Y-15302746D02*
X18170182Y-15293222D01*
X18170182Y-15293222D02*
X18179706Y-15274174D01*
X18179706Y-15274174D02*
X18198753Y-15264650D01*
X18198753Y-15264650D02*
X18227325Y-15264650D01*
X18227325Y-15264650D02*
X18246373Y-15274174D01*
X18322563Y-15474174D02*
X18332087Y-15464650D01*
X18332087Y-15464650D02*
X18351134Y-15436079D01*
X18351134Y-15436079D02*
X18360658Y-15417031D01*
X18360658Y-15417031D02*
X18370182Y-15388460D01*
X18370182Y-15388460D02*
X18379706Y-15340841D01*
X18379706Y-15340841D02*
X18379706Y-15302746D01*
X18379706Y-15302746D02*
X18370182Y-15255127D01*
X18370182Y-15255127D02*
X18360658Y-15226555D01*
X18360658Y-15226555D02*
X18351134Y-15207508D01*
X18351134Y-15207508D02*
X18332087Y-15178936D01*
X18332087Y-15178936D02*
X18322563Y-15169412D01*
X18684468Y-15474174D02*
X18674944Y-15464650D01*
X18674944Y-15464650D02*
X18655896Y-15436079D01*
X18655896Y-15436079D02*
X18646373Y-15417031D01*
X18646373Y-15417031D02*
X18636849Y-15388460D01*
X18636849Y-15388460D02*
X18627325Y-15340841D01*
X18627325Y-15340841D02*
X18627325Y-15302746D01*
X18627325Y-15302746D02*
X18636849Y-15255127D01*
X18636849Y-15255127D02*
X18646373Y-15226555D01*
X18646373Y-15226555D02*
X18655896Y-15207508D01*
X18655896Y-15207508D02*
X18674944Y-15178936D01*
X18674944Y-15178936D02*
X18684468Y-15169412D01*
X18760658Y-15264650D02*
X18760658Y-15397984D01*
X18760658Y-15283698D02*
X18770182Y-15274174D01*
X18770182Y-15274174D02*
X18789230Y-15264650D01*
X18789230Y-15264650D02*
X18817801Y-15264650D01*
X18817801Y-15264650D02*
X18836849Y-15274174D01*
X18836849Y-15274174D02*
X18846373Y-15293222D01*
X18846373Y-15293222D02*
X18846373Y-15397984D01*
X18970182Y-15397984D02*
X18951134Y-15388460D01*
X18951134Y-15388460D02*
X18941611Y-15378936D01*
X18941611Y-15378936D02*
X18932087Y-15359888D01*
X18932087Y-15359888D02*
X18932087Y-15302746D01*
X18932087Y-15302746D02*
X18941611Y-15283698D01*
X18941611Y-15283698D02*
X18951134Y-15274174D01*
X18951134Y-15274174D02*
X18970182Y-15264650D01*
X18970182Y-15264650D02*
X18998754Y-15264650D01*
X18998754Y-15264650D02*
X19017801Y-15274174D01*
X19017801Y-15274174D02*
X19027325Y-15283698D01*
X19027325Y-15283698D02*
X19036849Y-15302746D01*
X19036849Y-15302746D02*
X19036849Y-15359888D01*
X19036849Y-15359888D02*
X19027325Y-15378936D01*
X19027325Y-15378936D02*
X19017801Y-15388460D01*
X19017801Y-15388460D02*
X18998754Y-15397984D01*
X18998754Y-15397984D02*
X18970182Y-15397984D01*
X19093992Y-15264650D02*
X19170182Y-15264650D01*
X19122563Y-15197984D02*
X19122563Y-15369412D01*
X19122563Y-15369412D02*
X19132087Y-15388460D01*
X19132087Y-15388460D02*
X19151134Y-15397984D01*
X19151134Y-15397984D02*
X19170182Y-15397984D01*
X19389230Y-15264650D02*
X19389230Y-15464650D01*
X19389230Y-15274174D02*
X19408277Y-15264650D01*
X19408277Y-15264650D02*
X19446373Y-15264650D01*
X19446373Y-15264650D02*
X19465420Y-15274174D01*
X19465420Y-15274174D02*
X19474944Y-15283698D01*
X19474944Y-15283698D02*
X19484468Y-15302746D01*
X19484468Y-15302746D02*
X19484468Y-15359888D01*
X19484468Y-15359888D02*
X19474944Y-15378936D01*
X19474944Y-15378936D02*
X19465420Y-15388460D01*
X19465420Y-15388460D02*
X19446373Y-15397984D01*
X19446373Y-15397984D02*
X19408277Y-15397984D01*
X19408277Y-15397984D02*
X19389230Y-15388460D01*
X19598754Y-15397984D02*
X19579706Y-15388460D01*
X19579706Y-15388460D02*
X19570182Y-15369412D01*
X19570182Y-15369412D02*
X19570182Y-15197984D01*
X19760658Y-15397984D02*
X19760658Y-15293222D01*
X19760658Y-15293222D02*
X19751135Y-15274174D01*
X19751135Y-15274174D02*
X19732087Y-15264650D01*
X19732087Y-15264650D02*
X19693992Y-15264650D01*
X19693992Y-15264650D02*
X19674944Y-15274174D01*
X19760658Y-15388460D02*
X19741611Y-15397984D01*
X19741611Y-15397984D02*
X19693992Y-15397984D01*
X19693992Y-15397984D02*
X19674944Y-15388460D01*
X19674944Y-15388460D02*
X19665420Y-15369412D01*
X19665420Y-15369412D02*
X19665420Y-15350365D01*
X19665420Y-15350365D02*
X19674944Y-15331317D01*
X19674944Y-15331317D02*
X19693992Y-15321793D01*
X19693992Y-15321793D02*
X19741611Y-15321793D01*
X19741611Y-15321793D02*
X19760658Y-15312269D01*
X19827325Y-15264650D02*
X19903515Y-15264650D01*
X19855896Y-15197984D02*
X19855896Y-15369412D01*
X19855896Y-15369412D02*
X19865420Y-15388460D01*
X19865420Y-15388460D02*
X19884468Y-15397984D01*
X19884468Y-15397984D02*
X19903515Y-15397984D01*
X20046373Y-15388460D02*
X20027325Y-15397984D01*
X20027325Y-15397984D02*
X19989230Y-15397984D01*
X19989230Y-15397984D02*
X19970182Y-15388460D01*
X19970182Y-15388460D02*
X19960658Y-15369412D01*
X19960658Y-15369412D02*
X19960658Y-15293222D01*
X19960658Y-15293222D02*
X19970182Y-15274174D01*
X19970182Y-15274174D02*
X19989230Y-15264650D01*
X19989230Y-15264650D02*
X20027325Y-15264650D01*
X20027325Y-15264650D02*
X20046373Y-15274174D01*
X20046373Y-15274174D02*
X20055896Y-15293222D01*
X20055896Y-15293222D02*
X20055896Y-15312269D01*
X20055896Y-15312269D02*
X19960658Y-15331317D01*
X20227325Y-15397984D02*
X20227325Y-15197984D01*
X20227325Y-15388460D02*
X20208277Y-15397984D01*
X20208277Y-15397984D02*
X20170182Y-15397984D01*
X20170182Y-15397984D02*
X20151135Y-15388460D01*
X20151135Y-15388460D02*
X20141611Y-15378936D01*
X20141611Y-15378936D02*
X20132087Y-15359888D01*
X20132087Y-15359888D02*
X20132087Y-15302746D01*
X20132087Y-15302746D02*
X20141611Y-15283698D01*
X20141611Y-15283698D02*
X20151135Y-15274174D01*
X20151135Y-15274174D02*
X20170182Y-15264650D01*
X20170182Y-15264650D02*
X20208277Y-15264650D01*
X20208277Y-15264650D02*
X20227325Y-15274174D01*
X20303516Y-15474174D02*
X20313039Y-15464650D01*
X20313039Y-15464650D02*
X20332087Y-15436079D01*
X20332087Y-15436079D02*
X20341611Y-15417031D01*
X20341611Y-15417031D02*
X20351135Y-15388460D01*
X20351135Y-15388460D02*
X20360658Y-15340841D01*
X20360658Y-15340841D02*
X20360658Y-15302746D01*
X20360658Y-15302746D02*
X20351135Y-15255127D01*
X20351135Y-15255127D02*
X20341611Y-15226555D01*
X20341611Y-15226555D02*
X20332087Y-15207508D01*
X20332087Y-15207508D02*
X20313039Y-15178936D01*
X20313039Y-15178936D02*
X20303516Y-15169412D01*
M02*
